<svg width="177" height="139" viewBox="0 0 177 139" fill="none" xmlns="http://www.w3.org/2000/svg">
<path d="M90.5 139C128.884 139 160 107.884 160 69.5C160 31.1162 128.884 0 90.5 0C52.1162 0 21 31.1162 21 69.5C21 107.884 52.1162 139 90.5 139Z" fill="#A5D9C7"/>
<path d="M88.5 115.2C136.549 115.2 175.5 103.112 175.5 88.2C175.5 73.2883 136.549 61.2 88.5 61.2C40.4512 61.2 1.5 73.2883 1.5 88.2C1.5 103.112 40.4512 115.2 88.5 115.2Z" fill="#F48279"/>
<path d="M88.5 116.7C65.1 116.7 43.1 113.9 26.5 108.7C9.4 103.4 0 96.1 0 88.2C0 80.3 9.4 73 26.5 67.7C43.1 62.6 65.1 59.7 88.5 59.7C111.9 59.7 133.9 62.5 150.5 67.7C167.6 73 177 80.3 177 88.2C177 96.1 167.6 103.4 150.5 108.7C133.9 113.9 111.9 116.7 88.5 116.7ZM88.5 62.6C65.4 62.6 43.7 65.4 27.4 70.5C11.8 75.3 2.90002 81.8 2.90002 88.2C2.90002 94.6 11.8 101.1 27.4 105.9C43.7 111 65.4 113.8 88.5 113.8C111.6 113.8 133.3 111 149.6 105.9C165.2 101.1 174.1 94.6 174.1 88.2C174.1 81.8 165.2 75.3 149.6 70.5C133.3 65.4 111.6 62.6 88.5 62.6Z" fill="#001542"/>
<path d="M90.8 65.2C90.8 87 73.2 98.8 51.4 98.8C29.6 98.8 12 86.9 12 65.2C12 43.9 42 35.8 50.9 23.7C51.2 23.3 51.7 23.3 52 23.7C60.7 35.6 90.8 43.9 90.8 65.2Z" fill="#E4EDF1"/>
<path d="M51.4 100.3C40.1 100.3 29.9 97.1 22.6 91.3C14.7 85 10.5 76 10.5 65.2C10.5 50.6 23.5 42.1 35.1 34.5C41.1 30.6 46.7 26.9 49.7 22.9C50.1 22.4 50.7 22 51.4 22C52.1 22 52.7 22.3 53.1 22.9C56 26.8 61.6 30.5 67.5 34.3C79.1 41.9 92.3 50.5 92.3 65.2C92.3 76 88.1 85 80.2 91.3C72.9 97.1 62.7 100.3 51.4 100.3ZM51.4 25.5C48 29.6 42.5 33.2 36.7 37C25.8 44.1 13.4 52.2 13.4 65.3C13.4 87.5 32.5 97.5 51.3 97.5C70.1 97.5 89.2 87.5 89.2 65.3C89.2 52.2 76.7 44 65.7 36.8C60.1 33 54.7 29.4 51.4 25.5Z" fill="#001542"/>
<path d="M40.5 40.8C40 40.8 39.6 40.6 39.3 40.2C38.8 39.5 39 38.7 39.7 38.2C42.2 36.5 44 35 44.9 34.1C45.4 33.5 46.4 33.5 46.9 34C47.5 34.5 47.5 35.5 47 36C45.9 37.1 44.1 38.6 41.4 40.5C41.1 40.7 40.8 40.8 40.5 40.8Z" fill="#001542"/>
<path d="M60.6 39.8C60.3 39.8 60.0001 39.7 59.7001 39.5C57.4001 37.7 56.1 36.5 56 36.4C55.4 35.8 55.4 34.9 56 34.4C56.6 33.8 57.5 33.8 58 34.4C58 34.4 59.2001 35.6 61.4001 37.3C62.0001 37.8 62.2001 38.7 61.7001 39.3C61.4001 39.6 61 39.8 60.6 39.8Z" fill="#001542"/>
<path d="M51.4 45.6C50.6 45.6 50 45 50 44.2V36.7C50 35.9 50.6 35.3 51.4 35.3C52.2 35.3 52.8 35.9 52.8 36.7V44.2C52.8 44.9 52.2 45.6 51.4 45.6Z" fill="#001542"/>
<path d="M165 65.2C165 87 147.4 98.8 125.6 98.8C103.8 98.8 86.2 86.9 86.2 65.2C86.2 43.9 116.2 35.8 125.1 23.7C125.4 23.3 125.9 23.3 126.2 23.7C134.9 35.6 165 43.9 165 65.2Z" fill="#E4EDF1"/>
<path d="M152.8 44C156.9 48.5 159.6 53.7 159.6 60.2C159.6 82 142 93.8 120.2 93.8C109.8 93.8 100.3 91.1 93.3 85.9C100.4 94.5 112.3 99 125.7 99C147.5 99 165.1 87.1 165.1 65.4C165 56.2 159.6 49.6 152.8 44Z" fill="#C0CCD3"/>
<path d="M125.6 100.3C114.3 100.3 104.1 97.1 96.7999 91.3C88.8999 85 84.7 76 84.7 65.2C84.7 50.6 97.6999 42.1 109.3 34.5C115.3 30.6 120.9 26.9 123.9 22.9C124.3 22.4 124.9 22 125.6 22C126.3 22 126.9 22.3 127.3 22.8C130.2 26.7 135.8 30.4 141.7 34.2C153.3 41.8 166.5 50.4 166.5 65.1C166.5 75.9 162.3 84.9 154.4 91.2C147.1 97.1 136.9 100.3 125.6 100.3ZM125.6 25.5C122.2 29.6 116.7 33.2 110.9 37C100 44.1 87.5999 52.2 87.5999 65.3C87.5999 87.5 106.7 97.5 125.5 97.5C144.4 97.5 163.4 87.5 163.4 65.3C163.4 52.2 150.9 44 139.9 36.8C134.4 33 128.9 29.4 125.6 25.5Z" fill="#001542"/>
<path d="M116.2 39.8C115.8 39.8 115.3 39.6 115 39.2C114.5 38.6 114.7 37.7 115.3 37.2C117.1 35.9 118.3 34.9 119.1 34.1C119.6 33.5 120.6 33.5 121.1 34C121.7 34.5 121.7 35.5 121.2 36C120.3 36.9 119 38.1 117 39.5C116.8 39.7 116.5 39.8 116.2 39.8Z" fill="#001542"/>
<path d="M134.8 39.8C134.5 39.8 134.2 39.7 133.9 39.5C131.6 37.7 130.3 36.5 130.2 36.4C129.6 35.8 129.6 34.9 130.2 34.4C130.8 33.8 131.7 33.8 132.2 34.4C132.2 34.4 133.4 35.6 135.6 37.3C136.2 37.8 136.4 38.7 135.9 39.3C135.7 39.6 135.3 39.8 134.8 39.8Z" fill="#001542"/>
<path d="M125.6 45.6C124.8 45.6 124.2 45 124.2 44.2V36.7C124.2 35.9 124.8 35.3 125.6 35.3C126.4 35.3 127 35.9 127 36.7V44.2C127.1 44.9 126.4 45.6 125.6 45.6Z" fill="#001542"/>
<path d="M127.9 72C127.9 93.8 110.3 105.6 88.5001 105.6C66.7001 105.6 49.1001 93.7 49.1001 72C49.1001 50.7 79.1001 42.6 88.0001 30.5C88.3001 30.1 88.8001 30.1 89.1001 30.5C97.8001 42.3 127.9 50.7 127.9 72Z" fill="#E4EDF1"/>
<path d="M110 46.5C117 52.1 122.4 58.9 122.4 68C122.4 89.8 104.8 101.6 82.9999 101.6C73.8999 101.6 65.4999 99.5 58.8999 95.5C66.0999 102.1 76.6999 105.6 88.4999 105.6C110.3 105.6 127.9 93.7 127.9 72C127.9 60.6 119.3 52.9 110 46.5Z" fill="#C0CCD3"/>
<path d="M88.5001 107C77.2001 107 67.0001 103.8 59.7001 98C51.8001 91.7 47.6001 82.7 47.6001 71.9C47.6001 57.3 60.6001 48.8 72.2001 41.2C78.2001 37.3 83.8001 33.6 86.8001 29.6C87.2001 29.1 87.8001 28.7 88.5001 28.7C89.2001 28.7 89.8001 29 90.2001 29.6C93.1001 33.5 98.7001 37.2 104.6 41C116.2 48.6 129.4 57.2 129.4 71.9C129.4 82.7 125.2 91.7 117.3 98C110 103.8 99.8001 107 88.5001 107ZM88.5001 32.2C85.1001 36.3 79.6001 39.9 73.8001 43.7C62.9001 50.8 50.5001 58.9 50.5001 72C50.5001 94.2 69.6001 104.2 88.4001 104.2C107.3 104.2 126.3 94.2 126.3 72C126.3 58.9 113.8 50.7 102.8 43.5C97.2001 39.7 91.8001 36.2 88.5001 32.2Z" fill="#001542"/>
<path d="M70.4 52.3C69.9 52.3 69.4 52.1 69.2 51.6C68.8 50.9 69 50 69.7 49.6C69.8 49.5 79.2999 43.8 82.0999 40.8C82.5999 40.2 83.5999 40.2 84.0999 40.7C84.6999 41.2 84.7 42.2 84.2 42.7C81.1 46 71.6 51.8 71.2 52C70.9 52.2 70.6 52.3 70.4 52.3Z" fill="#001542"/>
<path d="M105.5 51.5C105.3 51.5 105 51.4 104.8 51.3C97.7 47.5 93.4 43.2 93.2 43.1C92.6 42.5 92.6 41.6 93.2 41.1C93.8 40.5 94.7 40.5 95.2 41.1C95.3 41.2 99.4 45.2 106.2 48.8C106.9 49.2 107.2 50 106.8 50.8C106.5 51.3 106 51.5 105.5 51.5Z" fill="#001542"/>
<path d="M88.5001 52.3C87.7001 52.3 87.1001 51.7 87.1001 50.9V43.4C87.1001 42.6 87.7001 42 88.5001 42C89.3001 42 89.9001 42.6 89.9001 43.4V50.9C89.9001 51.6 89.3001 52.3 88.5001 52.3Z" fill="#001542"/>
</svg>
