<svg width="155" height="149" viewBox="0 0 155 149" fill="none" xmlns="http://www.w3.org/2000/svg">
<path d="M69.5 149C107.884 149 139 117.884 139 79.5C139 41.1162 107.884 10 69.5 10C31.1162 10 0 41.1162 0 79.5C0 117.884 31.1162 149 69.5 149Z" fill="#A5D9C7"/>
<path d="M136.1 1.5H40.8V16.7H136.1V1.5Z" fill="#92BAE3"/>
<path d="M136.1 10.2H40.8V16.5999H136.1V10.2Z" fill="#6E8DAC"/>
<path d="M127.8 16.6H48.8999V131.9H127.8V16.6Z" fill="#F16271"/>
<path d="M127.8 16.6H48.8999V21.7H127.8V16.6Z" fill="#B55060"/>
<path d="M127.9 133.3H49.0001C48.2001 133.3 47.6001 132.7 47.6001 131.9V16.5999C47.6001 15.7999 48.2001 15.2 49.0001 15.2H127.9C128.7 15.2 129.3 15.7999 129.3 16.5999V131.9C129.3 132.7 128.6 133.3 127.9 133.3ZM50.4001 130.5H126.4V18.0999H50.4001V130.5Z" fill="#001542"/>
<path d="M28.5999 15.4C31.4718 15.4 33.7999 12.5346 33.7999 9C33.7999 5.46538 31.4718 2.59998 28.5999 2.59998C25.728 2.59998 23.3999 5.46538 23.3999 9C23.3999 12.5346 25.728 15.4 28.5999 15.4Z" fill="#FCB65C"/>
<path d="M33.1001 5.80005C33.5001 6.70005 33.8001 7.80006 33.8001 9.00006C33.8001 10.2001 33.5001 11.2001 33.1001 12.2001H40.7001V5.80005H33.1001Z" fill="#C7EAFB"/>
<path d="M148.2 15.4C151.072 15.4 153.4 12.5346 153.4 9C153.4 5.46538 151.072 2.59998 148.2 2.59998C145.328 2.59998 143 5.46538 143 9C143 12.5346 145.328 15.4 148.2 15.4Z" fill="#FCB65C"/>
<path d="M143.7 5.80005C143.3 6.70005 143 7.80006 143 9.00006C143 10.2001 143.3 11.2001 143.7 12.2001H136.1V5.80005H143.7Z" fill="#C7EAFB"/>
<path d="M148.2 1.20001C146 1.20001 144 2.50002 142.8 4.40002H137.5V1.40002C137.5 0.600024 136.9 0 136.1 0H40.8C40 0 39.4 0.600024 39.4 1.40002V4.40002H34.1C32.9 2.40002 30.9 1.20001 28.7 1.20001C25 1.20001 22 4.69998 22 9.09998C22 13.5 25 17 28.7 17C30.9 17 32.9 15.7 34.1 13.8H39.4V16.8C39.4 17.6 40 18.2 40.8 18.2H136.1C136.9 18.2 137.5 17.6 137.5 16.8V13.8H142.8C144 15.8 146 17 148.2 17C151.9 17 154.9 13.5 154.9 9.09998C154.9 4.69998 151.9 1.20001 148.2 1.20001ZM28.6 14C26.5 14 24.8 11.8 24.8 9C24.8 6.2 26.5 4 28.6 4C30.1 4 31.3 5.10001 32 6.70001C32.1 6.90001 32.1 7.09999 32.2 7.29999C32.2 7.49999 32.3 7.69999 32.3 7.79999C32.3 7.89999 32.3 7.99998 32.3 8.09998C32.3 8.39998 32.4 8.7 32.4 9C32.4 9.3 32.4 9.60002 32.3 9.90002C32.3 10 32.3 10.1 32.3 10.2C32.3 10.4 32.2 10.6 32.2 10.7C32.1 10.9 32.1 11.1 32 11.2C31.3 12.9 30.1 14 28.6 14ZM35.1 10.8C35.1 10.8 35.1 10.7 35.1 10.8C35.1 10.5 35.2 10.3 35.2 10.1C35.2 9.99998 35.2 10 35.2 9.90002C35.2 9.60002 35.2 9.3 35.2 9C35.2 8.7 35.2 8.39998 35.2 8.09998C35.2 7.99998 35.2 8.00002 35.2 7.90002C35.2 7.70002 35.1 7.50001 35.1 7.20001C35.1 7.20001 35.1 7.19998 35.1 7.09998H39.3V10.6H35.1V10.8ZM134.6 15.2H42.2V12.2V5.79999V2.79999H134.6V5.79999V12.2V15.2ZM141.7 10.8H137.5V7.29999H141.7C141.7 7.29999 141.7 7.30002 141.7 7.40002C141.7 7.60002 141.6 7.79998 141.6 8.09998C141.6 8.19998 141.6 8.19999 141.6 8.29999C141.6 8.59999 141.6 8.90001 141.6 9.20001C141.6 9.50001 141.6 9.79998 141.6 10.1C141.6 10.2 141.6 10.2 141.6 10.3C141.6 10.3 141.6 10.5 141.7 10.8C141.7 10.7 141.7 10.8 141.7 10.8ZM148.2 14C146.7 14 145.5 12.9 144.8 11.3C144.7 11.1 144.7 10.9 144.6 10.7C144.6 10.5 144.5 10.3 144.5 10.2C144.5 10.1 144.5 10 144.5 9.90002C144.5 9.60002 144.4 9.3 144.4 9C144.4 8.7 144.4 8.39998 144.5 8.09998C144.5 7.99998 144.5 7.89999 144.5 7.79999C144.5 7.59999 144.6 7.39999 144.6 7.29999C144.7 7.09999 144.7 6.89999 144.8 6.79999C145.4 5.19999 146.7 4.09998 148.2 4.09998C150.3 4.09998 152 6.29998 152 9.09998C152 11.8 150.3 14 148.2 14Z" fill="#001542"/>
<path d="M116.6 111V37.7C110.8 37.7 106.1 33 106.1 27.2H70.6001C70.6001 33 65.9001 37.5999 60.1001 37.5999V111C65.9001 111 70.6001 115.7 70.6001 121.5H106.1C106.2 115.7 110.8 111 116.6 111Z" fill="#E4EDF1"/>
<path d="M106.2 122.9H70.6999C69.8999 122.9 69.2999 122.3 69.2999 121.5C69.2999 116.5 65.2999 112.5 60.2999 112.5C59.4999 112.5 58.8999 111.9 58.8999 111.1V37.8C58.8999 37 59.4999 36.4 60.2999 36.4C65.2999 36.4 69.2999 32.4 69.2999 27.4C69.2999 26.6 69.8999 26 70.6999 26H106.2C107 26 107.6 26.6 107.6 27.4C107.6 32.4 111.6 36.4 116.6 36.4C117.4 36.4 118 37 118 37.8V111C118 111.8 117.4 112.4 116.6 112.4C111.6 112.4 107.6 116.4 107.6 121.4C107.6 122.3 107 122.9 106.2 122.9ZM71.9999 120.1H104.8C105.5 114.7 109.8 110.4 115.2 109.7V39.1C109.8 38.4 105.5 34.1 104.8 28.7H71.9999C71.2999 34.1 66.9999 38.4 61.5999 39.1V109.7C66.9999 110.3 71.2999 114.6 71.9999 120.1Z" fill="#001542"/>
</svg>
