<svg width="985" height="491" viewBox="0 0 985 491" fill="none" xmlns="http://www.w3.org/2000/svg">
<path d="M52.5576 493.89C52.5576 257.87 243.908 66.5846 479.863 66.5846C715.818 66.5846 907.168 257.935 907.168 493.89" fill="#FFCE56"/>
<path d="M478.634 0C479.28 0.969679 480.444 0.840395 481.413 1.22827C485.68 2.97369 488.589 6.01202 490.011 10.4079C490.528 12.024 490.593 13.6402 490.658 15.3209C490.658 18.8118 490.658 22.3673 490.658 25.8581C490.593 39.4336 490.464 52.9445 490.464 66.52C490.399 82.8753 490.399 99.2305 490.334 115.521C490.27 127.61 490.27 139.698 490.205 151.852C490.14 166.72 490.011 181.653 489.882 196.522C489.882 201.112 489.429 200.724 494.084 200.4C500.613 199.948 507.078 199.819 513.607 200.271C514.964 200.336 515.223 200.206 515.675 198.914C517.227 194.194 518.778 189.475 520.33 184.821C520.653 183.916 520.912 183.011 521.235 182.17C522.657 179.003 526.019 177.451 529.186 178.55C532.483 179.649 534.358 183.011 533.388 186.437C532.289 190.186 530.996 193.936 529.768 197.621C528.216 202.34 528.152 201.564 532.548 202.275C540.305 203.568 547.933 205.378 555.497 207.576C556.273 207.835 557.048 208.029 557.889 208.222C558.018 208.287 558.341 208.158 558.406 208.029C558.535 207.899 558.535 207.641 558.471 207.447C557.824 206.154 557.178 204.861 556.531 203.568C556.079 202.663 555.561 201.758 555.367 200.724C554.786 197.879 556.143 195.035 558.729 193.677C561.509 192.255 564.87 192.966 566.81 195.487C567.392 196.198 567.779 197.039 568.232 197.879C571.012 203.18 573.856 208.481 576.571 213.847C577.282 215.204 578.187 216.174 579.609 216.756C581.355 217.467 582.971 218.307 584.652 219.148C585.298 219.471 585.815 219.406 586.333 218.824C586.721 218.372 587.173 217.919 587.561 217.402C596.288 207.641 607.148 201.693 619.948 199.237C629.904 197.297 639.924 197.556 649.814 199.689C650.008 199.754 650.202 199.754 650.396 199.819C653.176 200.465 653.434 200.788 652.853 203.633C650.978 213.782 649.039 223.931 647.099 234.081C644.513 247.785 641.928 261.49 639.342 275.195C637.532 284.504 635.592 293.813 633.718 303.186C630.679 318.184 627.641 333.182 624.603 348.18C621.435 363.759 618.332 379.403 615.164 394.983C615.035 395.565 614.97 396.211 614.777 396.793C614.389 397.892 614.841 398.538 615.682 399.12C618.397 401.189 621.047 403.322 623.762 405.455C632.037 411.984 640.376 418.514 648.651 425.043C649.362 425.625 650.073 426.206 650.913 426.659C652.077 427.305 653.499 426.594 653.822 425.301C653.952 424.72 653.952 424.073 653.887 423.427C653.499 410.174 653.047 396.987 652.659 383.734C652.594 382.506 652.529 381.278 652.594 379.985C652.853 373.65 658.154 369.319 663.519 369.577C665.717 369.706 667.85 370.094 669.919 370.611C675.285 371.904 680.391 373.779 685.24 376.43C685.692 376.688 686.145 376.947 686.597 377.141C686.985 377.335 687.373 377.722 687.696 377.464C688.214 377.141 687.89 376.559 687.826 376.042C687.761 375.524 687.696 375.007 687.567 374.49C685.24 362.919 682.848 351.412 680.521 339.84C677.095 323.032 673.733 306.225 670.371 289.417C669.66 285.797 668.885 282.112 668.174 278.492C668.044 277.781 667.915 277.07 667.85 276.359C667.786 275.518 668.238 274.936 669.079 274.872C669.984 274.807 670.953 274.807 671.858 274.807C682.331 274.807 692.739 274.807 703.211 274.807C706.831 274.807 706.767 275.195 706.767 271.252C706.767 254.573 706.767 237.959 706.767 221.281C706.767 217.337 707.219 213.459 708.254 209.645C712.326 195.293 724.674 182.817 742.322 180.554C744.455 180.296 746.653 180.296 748.851 180.296C795.072 180.296 841.294 180.296 887.515 180.296C893.268 180.296 898.892 180.942 904.193 183.269C918.609 189.605 927.078 200.53 929.276 216.174C929.534 218.049 929.599 219.859 929.599 221.733C929.599 238.089 929.599 254.444 929.599 270.734C929.599 275.324 929.146 274.807 933.801 274.807C950.479 274.807 967.093 274.807 983.772 274.807C984.16 274.807 984.612 274.742 985 274.742C985 276.165 985 277.652 985 279.074C984.547 279.462 984.483 279.914 984.418 280.431C984.289 281.336 984.224 282.306 984.03 283.211C982.22 292.326 980.41 301.441 978.535 310.556C974.721 329.497 970.843 348.438 967.029 367.379C963.602 384.316 960.241 401.189 956.815 418.126C952.289 440.493 947.764 462.86 943.239 485.292C942.657 488.007 942.14 490.787 941.494 493.502C941.235 494.601 940.847 494.86 939.748 494.924C938.843 494.989 937.874 494.989 936.969 494.989C863.338 494.989 789.707 494.989 716.076 494.989C715.235 494.989 714.395 494.989 713.619 494.989C712.326 494.924 711.938 494.601 711.615 493.502C711.486 492.985 711.421 492.468 711.292 492.015C709.999 485.551 708.706 479.022 707.349 472.557C707.155 471.523 707.478 470.23 706.25 469.519C705.215 469.971 704.763 470.941 704.181 471.717C688.731 490.658 663.907 498.674 640.247 492.92C624.603 489.106 612.32 480.379 603.205 467.127C602.753 466.48 602.3 465.769 601.783 465.123C601.589 464.864 601.136 464.929 601.007 465.188C600.813 465.575 600.748 465.963 600.684 466.351C599.003 474.626 597.387 482.965 595.642 491.24C594.866 495.054 595.318 494.924 591.052 494.924C534.293 494.924 477.535 494.924 420.711 494.924C420 494.924 419.289 494.924 418.514 494.924C417.285 494.86 416.897 494.472 416.574 493.308C416.186 491.692 415.928 490.076 415.604 488.46C411.726 469.195 407.847 449.996 403.968 430.732C403.451 428.275 402.934 425.883 402.417 423.491C402.288 423.039 401.77 422.845 401.447 423.168C400.93 423.685 400.413 424.202 399.96 424.72C386.126 439.523 370.223 451.547 352.123 460.727C351.541 460.986 351.024 461.309 350.442 461.567C349.86 461.891 349.537 462.408 349.537 463.054C349.537 463.765 349.537 464.476 349.537 465.252C349.537 471.652 349.537 478.052 349.537 484.516C349.537 485.421 349.537 486.391 349.472 487.296C349.343 490.529 347.727 492.92 345.012 494.666C344.43 495.054 343.59 495.118 343.202 495.765C297.885 495.765 252.569 495.765 207.317 495.765C207.188 495.312 206.8 495.183 206.477 494.989C202.922 493.114 201.305 490.141 201.241 486.197C201.241 485.357 201.241 484.516 201.241 483.741C201.241 477.341 201.176 470.941 201.241 464.541C201.241 462.796 200.788 461.761 199.107 460.921C175.835 449.22 156.312 432.994 140.345 412.372C140.151 412.114 139.957 411.855 139.763 411.661C138.793 410.498 138.664 410.498 137.501 411.273C134.656 413.342 131.876 415.411 129.032 417.544C128.838 417.673 128.709 417.803 128.579 417.932C128.256 418.255 128.127 418.643 128.386 419.031C128.644 419.483 128.903 419.936 129.161 420.388C131.23 424.396 130.39 428.081 126.769 430.732C125.67 431.507 124.571 432.218 123.472 432.994C122.891 433.382 122.309 433.835 121.727 434.222C121.598 434.352 121.404 434.61 121.404 434.74C121.533 434.998 121.727 435.257 121.986 435.386C122.438 435.58 122.955 435.645 123.472 435.774C130.325 437.39 137.113 439.071 143.965 440.687C148.167 441.721 152.369 442.756 156.635 443.725C160.773 444.695 165.039 448.832 164.652 454.844C164.522 456.654 164.005 458.27 163.229 459.887C153.08 480.056 136.919 492.015 114.487 495.312C113.776 495.441 113 495.377 112.418 495.894C108.475 495.894 104.531 495.894 100.653 495.894C99.9416 495.377 99.1012 495.377 98.2608 495.312C82.3581 493.179 69.0412 486.133 58.504 473.979C42.7305 455.749 39.0457 429.762 48.8718 407.395C51.6516 401.124 55.401 395.435 59.9908 390.328C61.413 388.777 61.413 388.777 60.2494 386.967C60.0555 386.643 59.7969 386.256 59.5383 385.932C53.7849 377.464 48.0961 368.995 42.3427 360.527C40.5326 357.876 38.5286 355.42 36.2014 353.157C34.1973 351.218 32.0641 349.408 29.5429 348.115C29.2843 347.986 28.9611 347.727 28.7671 348.18C28.7025 348.309 28.7672 348.632 28.8318 348.761C30.4479 351.153 31.9994 353.61 33.6155 356.002C35.2963 358.523 35.2963 358.652 32.7752 360.333C24.4359 365.892 16.0967 371.452 7.75743 377.011C7.24027 377.335 6.72311 377.722 6.1413 377.981C5.4302 378.304 4.71911 378.11 4.33124 377.335C3.94337 376.688 3.62014 376.042 3.36156 375.395C2.39188 373.003 1.55148 370.547 1.22826 367.961C1.09897 366.991 0.905034 366.086 0 365.569C0 363.888 0 362.272 0 360.591C0.840389 360.333 1.03432 359.686 1.16361 358.975C1.42219 357.424 1.93936 356.002 2.58581 354.579C3.94336 351.606 6.01201 349.149 8.66246 347.274C12.7351 344.43 16.8078 341.586 20.9451 338.806C27.8621 334.087 34.8438 329.432 41.7608 324.778C44.3467 323.033 47.1264 321.74 50.3587 321.416C57.0818 320.705 62.512 322.968 66.8432 328.139C67.8775 329.432 68.8472 330.79 69.7522 332.148C77.8976 344.236 86.0429 356.325 94.1882 368.414C94.4468 368.866 94.77 369.254 95.0285 369.706C95.5457 370.611 96.3215 370.87 97.3558 370.741C99.6184 370.482 101.881 370.288 104.144 370.159C107.699 369.965 111.19 370.418 114.681 370.676C115.069 370.741 115.521 370.805 115.909 370.805C116.426 370.805 116.685 370.482 116.555 369.965C116.361 369.254 116.103 368.607 115.844 367.896C111.642 356.519 108.669 344.818 106.988 332.794C105.954 325.424 105.372 317.99 105.436 310.556C105.436 307.841 105.501 307.776 108.216 307.776C111.642 307.776 111.513 307.906 111.707 304.35C112.935 281.336 121.404 261.361 137.048 244.488C151.787 228.65 169.952 218.954 191.285 215.527C210.033 212.489 228.133 214.946 245.523 222.768C249.014 224.319 248.044 224.513 250.694 221.927C262.007 210.744 275.454 203.697 291.162 201.241C318.637 196.974 344.495 207.964 360.721 228.715C361.367 229.555 361.949 230.396 362.595 231.172C362.789 231.365 363.112 231.495 363.371 231.624C363.436 231.366 363.565 231.107 363.565 230.848C362.919 227.681 362.272 224.578 361.69 221.41C360.397 215.204 359.169 209.063 357.876 202.857C357.812 202.469 357.747 202.017 357.747 201.629C357.747 201.047 358.005 200.659 358.523 200.4C358.975 200.206 359.492 200.013 360.01 199.883C373.714 196.845 387.29 197.039 400.607 201.887C409.205 204.99 416.574 210.033 422.78 216.756C423.427 217.467 424.008 218.178 424.655 218.824C425.043 219.212 425.495 219.341 426.077 219.083C426.788 218.695 427.564 218.307 428.275 217.984C432.348 216.174 436.356 214.364 440.428 212.554C440.881 212.36 441.398 212.166 441.85 211.907C442.368 211.649 442.562 211.196 442.432 210.614C442.238 209.903 442.044 209.192 441.85 208.546C428.404 162.841 414.893 117.202 401.383 71.4977C400.801 69.623 400.348 67.7483 400.348 65.7443C400.413 58.6979 405.455 52.8152 412.372 51.6516C419.225 50.488 426.077 54.5606 428.275 61.2191C429.309 64.3867 429.956 67.619 430.667 70.8512C438.877 105.436 447.151 140.022 455.361 174.607C457.559 183.722 459.628 192.902 461.89 202.081C462.731 205.443 462.084 205.443 465.898 204.602C466.416 204.473 466.933 204.408 467.385 204.279C471.393 203.245 471.135 204.15 470.941 199.754C470.682 194.518 470.359 189.217 470.1 183.98C469.583 173.249 469.131 162.518 468.614 151.787C468.096 141.573 467.579 131.359 467.062 121.145C466.804 116.62 466.61 112.03 466.416 107.505C465.898 96.6447 465.446 85.7843 464.929 74.9885C464.218 60.6373 463.442 46.286 462.731 31.9348C462.472 26.3753 462.149 20.7511 461.955 15.1916C461.826 10.3432 463.83 6.39989 467.644 3.36156C469.131 2.19795 470.811 1.48685 472.622 0.90504C473.203 0.711104 473.85 0.711106 474.238 0.129298C475.725 7.88934e-06 477.147 0 478.634 0Z" fill="#2D3130"/>
<path d="M505.914 277.393C464.023 277.393 422.133 277.393 380.308 277.393C379.273 277.393 378.239 277.393 377.205 277.393C375.912 277.457 375.718 277.716 375.912 278.88C376.041 279.591 376.171 280.302 376.3 281.013C379.467 296.722 382.635 312.431 385.803 328.075C389.229 345.012 392.655 361.884 396.081 378.821C399.443 395.629 402.869 412.437 406.231 429.245C409.657 446.376 413.148 463.507 416.574 480.573C417.285 484.128 417.996 487.684 418.772 491.175C419.03 492.468 419.224 492.532 420.388 492.597C421.293 492.662 422.263 492.597 423.168 492.597C478.375 492.597 533.582 492.597 588.789 492.597C589.629 492.597 590.47 492.597 591.245 492.597C592.538 492.532 592.862 492.274 593.12 491.045C593.249 490.658 593.249 490.205 593.314 489.817C595.059 481.09 596.805 472.363 598.615 463.7C599.067 461.567 598.809 459.757 597.904 457.753C591.569 443.273 590.664 428.404 595.124 413.212C596.158 409.657 597.581 406.166 599.326 402.869C601.459 398.991 604.692 396.987 609.152 396.987C609.669 396.987 610.186 397.051 610.704 397.051C611.673 397.051 611.997 396.793 612.19 395.888C612.32 395.5 612.32 395.047 612.449 394.659C614.13 386.449 615.746 378.239 617.427 370.029C620.465 355.032 623.503 340.034 626.542 325.101C629.515 310.491 632.489 295.946 635.333 281.336C636.174 277.005 636.885 277.264 631.907 277.264C590.082 277.393 547.998 277.393 505.914 277.393Z" fill="#F0FAFF"/>
<path d="M243.907 310.168C199.883 310.168 155.795 310.168 111.772 310.168C107.699 310.168 107.893 309.715 107.958 313.982C108.216 326.523 110.091 338.871 113.194 351.024C114.81 357.359 116.879 363.5 119.141 369.577C119.658 370.999 120.499 371.71 121.921 372.034C124.83 372.68 127.674 373.65 130.454 374.813C137.307 377.658 143.513 381.472 148.943 386.579C154.114 391.492 153.726 398.926 148.102 403.322C147.068 404.162 145.904 404.938 144.87 405.778C143.642 406.748 142.284 407.459 141.25 408.687C141.573 410.433 142.866 411.467 143.9 412.76C172.926 449.479 217.014 474.108 268.343 476.371C280.69 476.953 292.972 476.048 305.061 473.85C332.729 468.807 357.618 457.559 379.726 440.04C387.096 434.158 393.948 427.693 400.284 420.711C401.253 419.612 401.577 418.643 401.253 417.091C399.379 408.17 397.633 399.249 395.823 390.328C390.651 364.793 385.544 339.258 380.308 313.788C379.468 309.651 380.502 309.974 375.589 309.974C331.824 310.168 287.865 310.168 243.907 310.168Z" fill="#6B706E"/>
<path d="M778.911 277.393C744.132 277.393 709.418 277.393 674.639 277.393C673.604 277.393 672.57 277.393 671.536 277.457C670.889 277.457 670.695 277.91 670.76 278.492C670.824 279.203 670.954 279.914 671.083 280.625C672.764 289.029 674.509 297.433 676.19 305.837C679.228 320.834 682.267 335.832 685.24 350.83C687.05 359.945 688.99 369.06 690.735 378.175C690.994 379.597 691.64 380.631 692.869 381.407C693.321 381.666 693.709 381.989 694.097 382.312C708.254 393.625 716.205 408.364 717.886 426.335C719.179 439.588 716.464 452.064 709.741 463.571C708.771 465.252 708.642 466.739 709.03 468.549C710.452 475.337 711.745 482.124 713.167 488.912C714.007 493.049 713.296 492.597 717.628 492.597C758.483 492.597 799.339 492.597 840.195 492.597C841.035 492.597 841.876 492.597 842.652 492.532C843.363 492.532 843.815 492.209 844.009 491.498C844.203 490.593 844.462 489.688 844.591 488.783C848.728 468.29 852.865 447.862 857.003 427.37C861.851 403.257 866.7 379.144 871.548 355.032C876.461 330.531 881.439 306.031 886.416 281.465C887.386 276.617 887.257 277.263 883.055 277.263C848.405 277.393 813.691 277.393 778.911 277.393Z" fill="#F0FAFF"/>
<path d="M817.954 275.001C852.927 275.001 887.836 275.001 922.809 275.001C923.843 275.001 924.877 275.001 925.912 274.936C926.623 274.936 927.075 274.549 927.14 273.837C927.205 272.932 927.205 271.963 927.205 271.058C927.205 254.702 927.205 238.412 927.205 222.057C927.205 220.311 927.075 218.566 926.881 216.82C925.395 201.564 913.952 188.118 898.631 184.174C894.753 183.205 890.874 182.946 886.931 182.946C841.097 182.946 795.328 182.946 749.495 182.946C748.267 182.946 747.038 182.946 745.745 183.011C738.764 183.205 732.299 185.209 726.481 189.152C715.233 196.78 709.285 207.382 709.156 221.022C709.027 237.701 709.092 254.315 709.156 270.993C709.156 275.647 708.768 275.13 713.358 275.13C748.267 275.001 783.11 275.001 817.954 275.001Z" fill="white"/>
<path d="M505.846 275.001C541.53 275.001 577.214 275.001 612.834 275.001C619.88 275.001 626.927 275.001 633.908 275.001C636.623 275.001 636.753 274.872 636.171 272.157C636.042 271.639 635.912 271.187 635.783 270.67C634.878 267.244 633.262 264.141 631.452 261.102C628.866 256.836 625.698 253.022 622.272 249.402C616.001 242.743 608.955 236.99 601.327 231.947C575.081 214.493 546.249 204.796 514.832 202.728C501.773 201.823 488.779 202.728 475.915 204.99C458.784 207.964 442.493 213.523 427.043 221.475C414.955 227.745 403.706 235.244 393.816 244.618C389.161 249.014 384.894 253.862 381.404 259.228C379.335 262.331 377.59 265.627 376.426 269.183C375.909 270.67 375.456 272.157 375.392 273.708C375.392 274.484 375.65 274.872 376.426 274.936C377.59 275.001 378.688 275.001 379.852 275.001C421.936 275.001 463.891 275.001 505.846 275.001Z" fill="#E7F2F7"/>
<path d="M656.088 492.403C657.316 492.339 659.514 492.274 661.648 492.08C663.264 491.951 664.945 491.692 666.561 491.369C699.207 485.098 720.41 454.78 714.915 421.811C710.907 397.827 692.936 378.692 669.276 373.133C667.401 372.68 665.462 372.228 663.458 372.228C659.256 372.228 655.894 374.878 655.119 379.08C654.925 380.308 654.925 381.537 654.989 382.765C655.442 396.534 655.894 410.239 656.347 424.009C656.411 425.625 656.024 427.047 654.925 428.275C654.02 429.309 654.02 429.439 654.989 430.214C658.48 432.994 661.971 435.709 665.462 438.489C669.017 441.333 672.573 444.178 676.193 446.893C680.589 450.255 685.049 450.061 689.122 446.44C689.51 446.117 689.898 445.729 690.286 445.406C690.673 445.148 691.061 445.148 691.449 445.406C691.902 445.729 692.096 446.246 691.902 446.764C691.772 447.152 691.514 447.475 691.255 447.798C688.217 450.901 684.597 452.194 680.266 451.418C677.744 450.966 675.676 449.608 673.736 448.057C654.472 432.865 635.208 417.738 615.944 402.611C615.232 402.029 614.521 401.447 613.746 400.93C609.738 398.409 604.631 399.508 602.109 403.581C601.592 404.421 601.14 405.391 600.687 406.36C595.192 418.061 593.705 430.344 596.033 443.014C601.592 473.01 627.256 492.468 656.088 492.403Z" fill="#F9DCA7"/>
<path d="M106.404 493.308C107.826 493.308 109.313 493.373 110.735 493.308C112.481 493.179 114.226 492.985 115.971 492.726C136.399 489.041 151.268 477.922 160.771 459.498C161.158 458.787 161.482 458.012 161.74 457.236C163.421 452.581 161.094 447.798 156.439 446.311C155.664 446.052 154.823 445.858 154.047 445.664C150.815 444.889 147.648 444.113 144.415 443.337C136.464 441.462 128.577 439.523 120.626 437.648C117.781 437.002 117.781 437.002 115.26 438.683C113.515 439.846 111.834 440.945 110.089 442.109C106.21 444.824 102.202 445.018 98.2586 442.367C97.3536 441.786 96.6425 441.721 95.7375 442.367C92.5052 444.824 89.2083 447.087 86.0407 449.608C82.2266 452.581 81.3216 457.236 83.4549 461.567C83.7134 462.149 84.1013 462.666 84.2952 463.183C84.4892 463.7 84.166 464.153 83.6488 464.476C83.2609 464.735 82.8084 464.67 82.4852 464.347C82.0327 463.894 81.6448 463.442 81.3862 462.925C78.7357 458.335 79.5761 452.387 83.3902 448.638C84.2952 447.798 85.2649 447.022 86.2992 446.311C88.9497 444.307 91.6002 442.367 94.2506 440.363C95.2849 439.588 95.2849 439.329 94.7031 438.295C94.3153 437.648 93.9274 437.067 93.5395 436.485C83.9074 422.069 74.2106 407.653 64.5784 393.237C64.3199 392.785 63.9966 392.397 63.6734 391.944C63.0916 391.168 62.7037 391.104 61.928 391.88C61.3462 392.461 60.7644 393.108 60.2472 393.754C47.4475 409.528 43.0516 427.434 47.5767 447.216C53.8473 474.044 77.8307 493.243 106.404 493.308Z" fill="#F9DCA7"/>
<path d="M206.476 216.82C195.163 216.82 183.592 218.953 173.119 223.026C143.447 234.533 121.662 260.65 115.714 291.938C114.809 296.592 114.228 301.311 114.228 306.095C114.228 307.453 114.486 307.711 115.844 307.711C121.015 307.711 126.187 307.711 131.359 307.711C131.552 307.711 131.746 307.711 132.005 307.647C132.587 307.582 132.975 307.259 133.039 306.742C133.104 306.225 133.104 305.707 133.169 305.19C133.492 301.247 133.944 297.368 134.785 293.554C142.93 255.607 180.424 228.844 221.539 237.377C254.378 244.165 277.198 272.027 279.525 303.057C279.59 304.285 279.719 305.513 279.913 306.742C279.978 307.323 280.366 307.647 280.948 307.711C281.465 307.776 281.982 307.776 282.499 307.776C287.024 307.776 291.614 307.776 296.139 307.776C296.656 307.776 297.174 307.776 297.691 307.711C298.273 307.647 298.66 307.323 298.725 306.742C298.79 306.031 298.79 305.319 298.725 304.544C298.531 299.372 297.82 294.265 296.656 289.223C287.412 247.656 250.564 216.885 206.476 216.82Z" fill="#EDC062"/>
<path d="M892.752 492.727C906.586 492.727 920.485 492.727 934.319 492.727C939.491 492.727 938.909 493.115 937.745 488.202C930.182 456.137 922.618 424.073 914.99 392.009C914.732 390.975 914.925 389.747 913.826 389.036C912.857 389.553 912.534 390.587 911.952 391.428C891.071 424.073 870.126 456.655 849.246 489.3C848.793 490.012 848.341 490.723 847.953 491.434C847.565 492.145 847.888 492.597 848.729 492.662C849.634 492.727 850.603 492.662 851.508 492.662C865.213 492.727 878.983 492.727 892.752 492.727Z" fill="#E7F2F7"/>
<path d="M916.089 386.062C916.153 386.385 916.282 387.031 916.476 387.613C924.04 419.677 931.603 451.806 939.167 483.87C939.361 484.646 939.619 485.486 939.813 486.262C939.813 486.326 940.007 486.52 940.007 486.52C940.201 486.456 940.395 486.326 940.46 486.197C940.654 485.745 940.848 485.227 940.912 484.71C942.399 477.341 943.886 469.907 945.373 462.537C949.122 443.79 952.936 425.043 956.75 406.296C960.177 389.359 963.603 372.486 967.029 355.549C970.908 336.479 974.722 317.473 978.536 298.403C979.441 293.942 980.346 289.482 981.251 285.021C981.316 284.762 981.316 284.375 980.992 284.31C980.863 284.245 980.605 284.439 980.475 284.568C979.958 285.344 979.441 286.12 978.924 286.896C958.561 318.701 938.197 350.442 917.899 382.248C917.446 382.959 916.994 383.67 916.541 384.316C916.218 384.769 916.024 385.221 916.089 386.062Z" fill="#D6E3E8"/>
<path d="M913.115 384.058C912.986 383.605 912.856 382.894 912.662 382.183C905.099 350.184 897.6 318.184 890.037 286.25C889.843 285.474 889.584 284.633 889.39 283.858C889.39 283.793 889.261 283.664 889.196 283.599C889.067 283.728 888.808 283.793 888.744 283.987C888.55 284.569 888.356 285.151 888.226 285.732C886.158 296.076 884.025 306.419 881.956 316.762C878.53 333.699 875.103 350.572 871.677 367.509C867.863 386.32 864.049 405.197 860.235 424.009C857.197 439.071 854.094 454.198 851.055 469.26C850.021 474.497 848.922 479.798 847.888 485.098C847.823 485.357 847.823 485.745 848.146 485.81C848.276 485.874 848.534 485.68 848.664 485.551C849.245 484.711 849.827 483.87 850.409 482.965C870.708 451.289 891.006 419.548 911.305 387.872C911.757 387.161 912.145 386.45 912.598 385.803C912.921 385.351 913.115 384.834 913.115 384.058Z" fill="#D6E3E8"/>
<path d="M955.97 277.393C948.536 277.393 941.101 277.393 933.667 277.393C932.956 277.393 932.245 277.393 931.469 277.393C929.853 277.458 929.659 277.651 929.595 279.138C929.595 279.655 929.595 280.173 929.595 280.69C929.595 287.09 929.595 293.49 929.595 299.889C929.595 300.794 929.53 301.829 929.853 302.605C930.241 303.51 931.469 303.38 932.31 303.704C938.257 306.095 941.037 312.689 938.58 318.572C936.641 323.226 931.857 325.877 926.815 325.295C921.902 324.713 917.829 320.641 917.183 315.792C916.536 310.75 919.122 305.966 923.712 303.962C924.552 303.574 925.457 303.38 926.362 303.057C926.75 302.928 927.073 302.605 927.073 302.152C927.138 301.635 927.138 301.118 927.138 300.601C927.138 293.748 927.138 286.96 927.138 280.108C927.138 277.393 927.073 277.393 924.358 277.328C923.712 277.328 923.13 277.328 922.484 277.328C913.369 277.328 904.318 277.328 895.203 277.328C893.716 277.328 892.165 276.811 890.743 277.781C890.549 279.268 891.131 280.625 891.454 281.983C897.531 307.905 903.672 333.828 909.813 359.751C911.365 366.41 912.981 373.003 914.532 379.662C914.661 380.114 914.532 380.825 915.243 380.825C915.696 380.825 915.89 380.373 916.148 380.05C916.472 379.532 916.859 379.015 917.183 378.498C937.998 345.982 958.879 313.4 979.695 280.884C980.212 280.108 980.729 279.332 981.182 278.492C981.569 277.781 981.311 277.328 980.47 277.328C979.63 277.264 978.79 277.328 978.014 277.328C970.644 277.393 963.339 277.393 955.97 277.393Z" fill="#E7F2F7"/>
<path d="M266.142 307.776C268.728 307.776 271.314 307.776 273.9 307.776C274.611 307.776 275.322 307.776 276.098 307.712C277.003 307.647 277.326 307.259 277.326 306.289C277.326 305.966 277.326 305.643 277.261 305.384C276.679 295.429 274.223 286.055 269.698 277.134C256.316 250.759 227.29 234.275 195.679 238.994C183.59 240.804 172.601 245.458 163.033 253.086C146.225 266.403 137.175 283.857 135.623 305.255C135.559 305.772 135.623 306.289 135.688 306.807C135.753 307.259 136.011 307.582 136.464 307.647C137.304 307.712 138.08 307.776 138.92 307.776C144.092 307.776 149.264 307.776 154.435 307.776C154.823 307.776 155.276 307.776 155.663 307.776C157.732 307.712 157.732 307.712 157.991 305.772C158.314 303.51 158.573 301.247 159.025 299.049C164.003 274.742 188.051 256.189 215.978 261.555C235.242 265.24 250.175 280.302 254.054 299.566C254.506 301.7 254.7 303.833 254.959 306.031C255.217 307.712 255.217 307.776 256.833 307.841C259.936 307.776 263.039 307.776 266.142 307.776Z" fill="#DDAD58"/>
<path d="M52.8801 323.614C49.6478 323.679 46.7388 324.455 44.2176 326.136C36.5895 331.243 28.9613 336.414 21.3332 341.521C21.0099 341.715 20.6221 342.103 20.6221 342.426C20.6221 342.879 21.2039 342.943 21.5917 342.943C23.0139 343.137 24.4361 343.267 25.8583 343.654C29.6078 344.753 32.84 346.757 35.8137 349.214C39.1753 352.058 42.0197 355.291 44.4762 358.911C45.4459 360.333 46.4155 361.82 47.3852 363.307C64.0637 388.001 80.8068 412.566 97.2267 437.455C97.55 437.972 97.8732 438.489 98.2611 439.006C100.653 441.851 104.208 442.562 107.505 440.881C108.152 440.558 108.734 440.105 109.315 439.717C114.358 436.291 119.465 432.93 124.507 429.503C124.96 429.245 125.347 428.922 125.8 428.598C128.127 426.724 128.644 424.332 127.222 421.746C126.834 421.035 126.317 420.324 125.865 419.677C106.342 390.716 86.8189 361.69 67.296 332.729C66.4556 331.436 65.5505 330.144 64.5162 328.98C61.3486 325.424 57.3406 323.744 52.8801 323.614Z" fill="white"/>
<path d="M302.732 202.727C299.758 202.857 296.914 202.986 294.005 203.374C278.038 205.443 264.462 212.166 252.955 223.285C252.503 223.737 252.05 224.19 251.727 224.642C251.339 225.159 251.468 225.612 251.986 225.935C252.632 226.323 253.214 226.646 253.86 227.034C258.644 229.749 263.105 232.917 267.306 236.472C269.634 238.412 269.246 238.476 271.573 236.537C282.24 227.681 294.587 223.866 308.227 225.483C325.617 227.551 338.287 236.731 346.432 252.246C347.531 254.379 348.436 256.577 349.083 258.84C349.471 260.132 350.117 260.585 351.539 260.65C357.293 260.908 362.788 262.33 368.024 264.593C368.606 264.852 369.187 265.11 369.769 265.304C370.222 265.498 370.61 265.11 370.545 264.658C370.48 264.076 370.351 263.429 370.222 262.848C368.864 256.06 367.442 249.272 366.084 242.484C365.761 240.933 365.179 239.511 364.339 238.218C350.182 215.269 329.495 203.697 302.732 202.727Z" fill="#D1A454"/>
<path d="M275.711 493.502C296.462 493.502 317.278 493.502 338.029 493.502C339.192 493.502 340.291 493.567 341.455 493.437C344.493 493.049 346.756 490.787 347.144 487.749C347.208 487.167 347.208 486.52 347.208 485.874C347.208 479.28 347.208 472.622 347.208 466.028C347.208 465.381 347.144 464.799 347.079 464.218C347.015 463.83 346.627 463.765 346.368 463.83C345.657 464.024 345.011 464.347 344.364 464.606C326.134 472.622 307.064 477.341 287.218 478.698C274.483 479.603 261.812 479.021 249.206 477.082C234.661 474.82 220.568 470.747 207.122 464.8C206.476 464.476 205.829 464.218 205.118 463.959C204.213 463.636 203.825 463.894 203.825 464.929C203.825 465.317 203.825 465.769 203.825 466.157C203.825 472.686 203.825 479.151 203.825 485.68C203.825 486.391 203.825 487.167 203.954 487.813C204.536 491.175 206.993 493.243 210.354 493.502C211.389 493.567 212.423 493.502 213.457 493.502C234.144 493.502 254.96 493.502 275.711 493.502Z" fill="#575E5B"/>
<path d="M241.513 307.776C242.741 307.776 243.97 307.776 245.263 307.776C247.202 307.776 249.206 307.776 251.145 307.712C252.244 307.712 252.632 307.259 252.503 306.16C252.244 304.027 252.05 301.829 251.598 299.696C246.749 276.036 223.412 258.711 197.296 263.947C178.678 267.632 164.327 282.5 161.03 301.118C160.706 302.928 160.577 304.803 160.448 306.677C160.383 307.259 160.771 307.647 161.353 307.712C161.999 307.776 162.581 307.776 163.228 307.776C168.399 307.776 173.571 307.776 178.743 307.776C182.686 307.776 181.91 307.97 182.557 304.544C184.561 293.748 193.934 285.538 204.73 284.827C217.659 283.987 227.291 292.714 229.877 302.282C230.2 303.575 230.459 304.932 230.717 306.225C231.041 307.647 231.105 307.712 232.527 307.776C235.566 307.776 238.539 307.776 241.513 307.776Z" fill="#EDC062"/>
<path d="M633.652 200.465C629.321 200.465 624.99 200.853 620.723 201.693C608.57 203.956 598.162 209.58 589.758 218.695C589.241 219.212 588.853 219.794 588.4 220.376C588.142 220.699 588.336 221.022 588.594 221.216C589.241 221.669 590.017 222.121 590.728 222.509C596.352 225.677 601.717 229.038 606.954 232.852C614.84 238.606 622.145 244.941 628.351 252.505C631.713 256.577 634.622 260.973 636.82 265.821C637.143 266.468 637.143 267.696 638.048 267.567C638.63 267.502 638.63 266.339 638.759 265.628C638.759 265.498 638.759 265.434 638.824 265.304C642.315 246.945 645.741 228.586 649.232 210.162C649.62 208.029 650.072 205.895 650.395 203.762C650.589 202.792 650.331 202.469 649.361 202.211C648.779 202.017 648.133 201.887 647.551 201.758C642.896 200.982 638.307 200.465 633.652 200.465Z" fill="#D6E3E8"/>
<path d="M378.626 200.465C372.872 200.465 368.347 200.918 363.887 201.758C360.331 202.404 360.202 202.017 360.978 206.089C364.598 223.867 368.218 241.709 371.838 259.486C372.355 262.137 372.937 264.723 373.519 267.373C373.583 267.632 373.648 267.955 374.036 267.955C374.165 267.955 374.359 267.696 374.424 267.502C375.652 264.464 377.139 261.49 378.884 258.711C381.923 253.927 385.607 249.531 389.551 245.458C398.407 236.473 408.492 229.168 419.352 222.897C420.128 222.445 420.968 221.992 421.744 221.539C422.585 221.022 422.649 220.634 421.938 219.794C417.865 215.075 413.146 211.132 407.651 208.029C398.342 202.663 388.129 200.594 378.626 200.465Z" fill="#D6E3E8"/>
<path d="M313.271 307.776C315.469 307.776 317.602 307.841 319.8 307.776C321.093 307.776 322.515 308.035 323.744 307.453C324.067 306.289 324.39 305.061 324.584 303.898C326.911 292.908 337.19 284.504 349.214 284.827C359.945 285.15 370.482 293.102 372.486 305.19C372.551 305.708 372.616 306.225 372.745 306.742C372.874 307.388 373.327 307.841 374.038 307.841C375.266 307.841 376.494 307.841 377.787 307.841C378.563 307.841 378.951 307.388 378.886 306.677C378.821 305.837 378.692 305.061 378.498 304.221C376.3 293.36 374.102 282.565 371.969 271.704C371.646 269.894 370.805 268.795 369.189 268.019C360.462 263.753 351.347 262.137 341.78 263.688C325.36 266.339 313.594 275.389 306.419 290.322C304.092 295.235 302.863 300.471 302.411 305.837C302.282 307.518 302.54 307.776 304.286 307.841C307.324 307.776 310.298 307.776 313.271 307.776Z" fill="#EDC062"/>
<path d="M487.622 149.007H487.687C487.687 146.421 487.687 143.836 487.687 141.25C487.752 127.48 487.816 113.776 487.881 100.006C487.881 99.3597 487.945 98.7779 487.881 98.1314C487.816 97.4203 487.428 97.0324 486.653 97.0324C486.329 97.0324 486.006 97.0324 485.748 97.0324C481.481 97.2264 477.279 97.3556 473.012 97.5496C471.978 97.6142 470.944 97.6142 469.91 97.7435C468.811 97.8728 468.487 98.196 468.487 99.3597C468.552 102.139 468.681 104.919 468.811 107.699C469.328 118.559 469.909 129.355 470.427 140.215C470.685 146.098 470.944 151.981 471.267 157.864C471.849 169.952 472.431 182.041 473.077 194.13C473.206 196.392 473.336 198.655 473.465 200.917C473.594 202.857 473.594 202.857 475.469 202.598C478.766 202.146 481.998 201.628 485.295 201.176C487.299 200.917 487.364 200.853 487.428 198.913C487.428 198.59 487.428 198.267 487.428 198.008C487.493 181.653 487.558 165.298 487.622 149.007Z" fill="#D3B18F"/>
<path d="M302.605 227.681C298.338 227.551 293.877 228.262 289.482 229.62C283.146 231.495 277.522 234.662 272.545 238.993C271.575 239.834 271.575 240.092 272.351 240.998C272.674 241.385 273.062 241.709 273.45 242.096C277.199 245.846 280.561 249.854 283.664 254.185C285.474 256.771 285.15 256.706 287.478 254.767C299.372 245.135 317.99 248.626 324.972 263.494C325.23 264.076 325.489 264.593 325.748 265.175C325.942 265.627 326.329 265.757 326.782 265.627C327.558 265.369 328.269 264.981 329.045 264.658C333.958 262.524 339 261.231 344.301 260.844C346.951 260.65 347.081 260.714 346.111 257.935C345.917 257.417 345.788 256.965 345.529 256.512C338.159 238.282 320.576 227.487 302.605 227.681Z" fill="#D1A454"/>
<path d="M488.008 42.6013C488.073 42.6013 488.073 42.6013 488.137 42.6013C488.137 39.8215 488.137 37.0418 488.137 34.262C488.137 31.353 488.202 28.444 488.202 25.5996C488.202 21.7855 488.331 17.9714 488.137 14.1573C487.879 8.08069 483.418 3.55552 477.342 2.90907C471.653 2.32726 466.352 6.01205 464.736 11.7655C464.283 13.3816 464.283 14.9977 464.348 16.6785C464.671 22.9491 465.059 29.2843 465.318 35.5549C465.835 46.4153 466.352 57.2111 466.804 68.0715C466.869 69.4291 466.998 70.722 467.128 72.0795C467.192 72.7906 467.645 73.1785 468.356 73.1785C468.873 73.1785 469.39 73.2431 469.907 73.1785C475.079 73.0492 480.251 72.9199 485.422 72.726C487.814 72.6613 487.814 72.5967 487.879 70.2694C487.879 70.0755 487.879 69.8816 487.879 69.623C488.008 60.6373 488.008 51.5869 488.008 42.6013Z" fill="#F498A9"/>
<path d="M460.079 204.99C460.014 204.538 459.885 203.956 459.691 203.374C454.39 181.007 449.024 158.575 443.724 136.208C443.53 135.432 443.336 134.591 443.077 133.816C442.948 133.428 442.56 133.169 442.107 133.234C441.59 133.298 441.073 133.428 440.621 133.622C435.772 135.109 430.988 136.66 426.14 138.212C425.752 138.341 425.364 138.47 424.976 138.599C424.33 138.858 423.942 139.31 424.136 140.022C424.33 140.797 424.589 141.638 424.847 142.413C427.304 150.623 429.696 158.833 432.152 167.043C436.095 180.49 440.103 194 444.047 207.447C444.305 208.352 444.629 209.192 444.952 210.097C445.146 210.55 445.534 210.679 445.986 210.614C446.374 210.55 446.762 210.42 447.15 210.291C450.899 209.127 454.649 207.899 458.333 206.736C458.721 206.606 459.109 206.412 459.497 206.283C459.885 205.96 460.014 205.572 460.079 204.99Z" fill="#D3B18F"/>
<path d="M414.7 53.9789C409.722 53.9789 405.197 57.1465 403.516 61.801C402.547 64.5161 402.676 67.2312 403.452 70.011C407.847 84.7501 412.179 99.4892 416.51 114.293C416.704 114.875 416.898 115.457 417.092 116.038C417.286 116.491 417.609 116.685 418.061 116.62C418.449 116.556 418.837 116.426 419.225 116.297C424.655 114.616 430.085 112.871 435.451 111.125C437.39 110.479 437.39 110.479 437.002 108.54C436.938 108.152 436.809 107.699 436.744 107.311C433.899 95.2872 430.99 83.1986 428.146 71.1746C427.5 68.3948 426.853 65.5504 426.077 62.7707C424.655 57.4698 420.065 53.9789 414.7 53.9789Z" fill="#F498A9"/>
<path d="M105.761 372.551C104.468 372.616 102.529 372.745 100.589 372.874C97.4865 373.133 97.4865 373.133 99.2966 375.783C107.894 388.583 116.492 401.318 125.09 414.118C125.349 414.57 125.672 414.958 125.995 415.411C126.448 415.992 126.965 416.186 127.611 415.734C128.064 415.475 128.452 415.152 128.904 414.829C134.658 410.562 140.346 406.36 146.1 402.094C146.617 401.706 147.069 401.383 147.522 400.93C150.948 397.763 151.207 392.72 148.104 389.229C147.457 388.454 146.617 387.807 145.841 387.096C134.399 377.529 121.211 372.874 105.761 372.551Z" fill="#F9DCA7"/>
<path d="M304.027 251.794C297.368 251.858 292.714 253.604 288.706 256.9C288.318 257.224 287.93 257.612 287.542 257.935C287.09 258.387 286.831 258.904 287.284 259.551C287.542 259.874 287.672 260.262 287.93 260.65C294.459 271.64 298.532 283.47 300.407 296.076C300.471 296.593 300.601 297.498 300.73 297.498C301.506 297.498 301.441 296.722 301.7 296.205C301.829 295.946 301.829 295.623 301.958 295.3C305.384 284.245 311.849 275.389 321.417 268.86C321.869 268.537 322.322 268.343 322.709 268.019C323.744 267.244 323.873 266.921 323.356 265.692C323.097 265.046 322.774 264.335 322.451 263.753C318.055 255.995 311.461 252.052 304.027 251.794Z" fill="#BF9045"/>
<path d="M206.472 307.776C212.678 307.776 218.884 307.776 225.09 307.776C228.775 307.776 228.451 307.647 227.87 304.285C227.805 303.898 227.676 303.51 227.546 303.122C224.702 293.231 215.458 287.09 206.278 287.219C196.581 287.348 188.048 293.748 185.333 303.186C185.01 304.285 184.816 305.384 184.687 306.548C184.557 307.259 184.945 307.712 185.721 307.776C186.367 307.841 186.949 307.841 187.596 307.841C193.866 307.776 200.137 307.776 206.472 307.776Z" fill="#EDC062"/>
<path d="M348.308 307.776C354.32 307.776 360.267 307.776 366.279 307.776C367.12 307.776 367.96 307.776 368.736 307.776C369.9 307.711 370.223 307.388 370.158 306.225C370.094 305.514 370.029 304.802 369.835 304.091C367.572 294.524 358.975 287.607 349.342 287.219C339.71 286.831 330.466 292.972 327.492 302.734C327.104 304.027 326.911 305.32 326.717 306.677C326.652 307.259 326.975 307.647 327.622 307.712C328.462 307.776 329.302 307.776 330.078 307.776C336.09 307.776 342.231 307.776 348.308 307.776Z" fill="#DDAD58"/>
<path d="M3.29736 364.147C3.42665 365.181 3.62059 367.056 4.00847 368.866C4.39634 370.547 4.97814 372.228 5.55995 373.844C5.94782 374.878 6.33569 374.943 7.17608 374.49C7.6286 374.232 8.08111 373.973 8.46898 373.65C15.58 368.866 22.6909 364.147 29.8666 359.363C30.3191 359.105 30.707 358.781 31.1595 358.458C31.8059 358.006 31.8706 357.488 31.4181 356.907C29.4141 353.933 27.41 350.895 25.406 347.921C23.7899 345.529 23.7899 345.529 20.9455 345.464C20.5576 345.464 20.1051 345.464 19.7173 345.529C10.6023 346.046 3.29736 353.998 3.29736 364.147Z" fill="#D6E3E8"/>
<path d="M487.876 85.0732H487.941C487.941 83.3278 487.941 81.5823 487.941 79.8369C487.941 78.6087 487.941 77.3804 487.876 76.1522C487.876 75.5703 487.488 75.1825 486.906 75.1825C486.26 75.1178 485.678 75.1178 485.032 75.1825C479.796 75.3118 474.495 75.5057 469.258 75.635C468.935 75.635 468.612 75.635 468.353 75.6996C467.771 75.7643 467.448 76.1521 467.448 76.734C467.448 77.5743 467.448 78.4147 467.448 79.1905C467.642 83.8449 467.901 88.4994 468.095 93.0892C468.095 93.4124 468.095 93.7357 468.159 93.9942C468.289 94.9639 468.547 95.2225 469.582 95.2225C472.749 95.1579 475.981 95.0932 479.149 94.9639C481.606 94.8346 484.127 94.7053 486.583 94.5761C487.553 94.5114 487.876 94.1882 487.876 93.2185C487.941 90.4388 487.876 87.7883 487.876 85.0732Z" fill="#E86B7E"/>
<path d="M442.044 129.42C442.044 129.226 441.979 128.838 441.85 128.45C441.462 126.834 441.074 125.218 440.686 123.602C439.91 120.499 439.199 117.396 438.424 114.293C438.1 113.065 437.971 113 436.678 113.388C430.989 115.198 425.236 116.943 419.547 118.818C418.319 119.206 418.125 119.594 418.513 120.951C419.612 124.83 420.775 128.644 421.939 132.523C422.262 133.493 422.521 134.527 422.844 135.497C423.038 136.078 423.426 136.272 424.072 136.143C424.46 136.078 424.913 135.949 425.301 135.82C430.343 134.268 435.321 132.652 440.363 131.036C440.751 130.907 441.139 130.777 441.526 130.648C441.85 130.454 442.044 130.131 442.044 129.42Z" fill="#E86B7E"/>
<path d="M524.015 201.112C525.761 201.176 526.019 201.047 526.472 199.689C527.442 196.845 528.347 194.001 529.316 191.221C529.898 189.346 530.609 187.536 531.062 185.597C531.579 183.593 530.48 181.653 528.605 180.878C526.731 180.166 524.662 180.942 523.628 182.882C523.369 183.334 523.24 183.851 523.046 184.304C521.494 188.894 520.007 193.483 518.456 198.073C518.327 198.59 518.197 199.043 518.068 199.56C517.939 200.013 518.133 200.4 518.585 200.465C520.589 200.724 522.529 200.918 524.015 201.112Z" fill="#FFE2DC"/>
<path d="M928.436 323.032C932.38 322.968 935.677 320.253 936.776 316.439C937.616 313.529 936.517 308.875 932.574 306.677C931.798 306.225 930.828 305.513 929.988 306.095C929.212 306.677 929.6 307.841 929.6 308.746C929.6 309.198 929.794 309.521 930.182 309.78C930.699 310.103 931.216 310.426 931.669 310.879C933.22 312.43 933.544 314.952 932.38 316.891C931.216 318.766 928.954 319.606 926.691 318.96C924.752 318.378 923.394 316.439 923.394 314.241C923.394 312.431 924.17 311.008 925.721 310.168C926.95 309.521 927.144 308.552 927.079 307.388C927.014 306.095 926.497 305.707 925.334 306.095C921.326 307.453 918.869 311.655 919.58 315.921C920.421 320.059 924.105 323.097 928.436 323.032Z" fill="#A7BBC1"/>
<path d="M561.443 195.487C561.184 195.552 560.667 195.617 560.215 195.811C558.081 196.716 557.047 198.978 558.081 201.176C559.31 203.891 560.796 206.477 562.219 209.127C562.606 209.839 563.253 210.097 563.899 210.356C566.614 211.39 569.265 212.424 571.98 213.459C572.368 213.588 572.756 213.847 573.144 213.523C573.531 213.135 573.208 212.748 573.014 212.424C570.558 207.641 568.037 202.922 565.58 198.202C565.322 197.75 565.063 197.297 564.74 196.91C563.899 196.004 562.93 195.552 561.443 195.487Z" fill="#FFE2DC"/>
<path d="M928.24 311.913C926.947 311.913 925.913 313.012 925.913 314.305C925.913 315.598 926.947 316.633 928.304 316.633C929.597 316.633 930.632 315.598 930.632 314.241C930.632 312.948 929.533 311.849 928.24 311.913Z" fill="#E7F2F7"/>
<path d="M571.529 78.2856C572.111 78.4795 572.887 78.027 573.598 77.122C574.891 75.4412 576.701 74.7301 578.77 74.7948C582.131 74.8594 584.782 77.5745 584.911 80.9361C584.976 82.0997 584.717 83.1986 584.329 84.2976C581.937 91.4732 579.61 98.5842 577.218 105.76C577.024 106.277 576.895 106.73 576.701 107.182C575.279 110.285 571.853 111.772 568.685 110.673C565.453 109.574 563.643 106.342 564.483 103.045C565.065 100.847 565.905 98.7135 566.552 96.5802C566.681 96.0631 566.81 95.5459 566.81 95.0934C566.81 95.0287 566.487 94.7702 566.358 94.8348C565.905 95.0287 565.453 95.2227 565 95.5459C561.445 97.8085 557.825 100.071 554.269 102.334C553.493 102.851 552.718 103.368 551.877 103.691C548.968 104.984 545.671 104.014 543.926 101.364C542.181 98.7135 542.633 95.0287 545.025 92.8954C545.542 92.4429 546.189 92.0551 546.77 91.6672C553.041 87.6592 559.312 83.7158 565.582 79.7078C567.328 78.6088 568.944 77.8977 571.529 78.2856Z" fill="#2D3130"/>
<path d="M574.179 84.75C574.05 81.5823 571.206 79.7723 568.555 80.8712C567.973 81.1298 567.456 81.4531 566.939 81.7763C560.733 85.7196 554.527 89.5984 548.386 93.5417C547.804 93.9296 547.158 94.3175 546.64 94.8346C545.218 96.1922 545.024 98.3901 546.059 99.9416C547.157 101.558 549.162 102.14 550.972 101.364C551.424 101.17 551.877 100.911 552.329 100.588C558.664 96.5801 565.064 92.5074 571.4 88.4994C571.917 88.1762 572.434 87.7883 572.886 87.4004C573.727 86.6247 574.179 85.5904 574.179 84.75Z" fill="#FFE2DC"/>
<path d="M570.752 108.604C571.98 108.604 573.014 108.151 573.725 107.246C574.178 106.729 574.566 106.018 574.76 105.372C577.281 97.9375 579.737 90.5033 582.129 83.0691C582.323 82.4873 582.388 81.8409 582.388 81.2591C582.388 78.1561 579.091 76.2814 576.44 77.8328C575.018 78.6732 574.76 79.5136 575.535 81.0651C575.6 81.2591 575.729 81.3884 575.859 81.5823C577.281 84.6206 576.57 87.7882 573.855 89.8569C573.273 90.3094 572.691 90.6973 572.045 91.0205C571.075 91.5377 570.558 92.3134 570.234 93.4124C569.265 96.58 568.166 99.683 567.132 102.851C567.002 103.238 566.873 103.626 566.808 104.014C566.485 106.341 568.424 108.539 570.752 108.604Z" fill="#FFE2DC"/>
<path d="M583.428 154.114C583.428 153.92 583.363 153.403 583.363 152.886C583.428 149.525 585.755 146.874 588.923 146.486C592.284 146.098 595.193 147.908 595.904 151.205C596.486 153.727 596.68 156.312 597.003 158.834C597.585 163.617 598.167 168.466 598.749 173.314C598.878 174.672 599.072 175.965 599.072 177.322C599.072 180.554 596.809 183.14 593.771 183.593C590.345 184.11 587.306 182.235 586.466 178.809C586.078 177.193 586.014 175.577 585.755 173.896C585.302 170.922 585.302 170.858 582.717 172.344C577.674 175.253 572.697 178.098 567.719 181.007C566.943 181.459 566.103 181.977 565.262 182.3C562.289 183.463 559.057 182.3 557.44 179.649C555.76 176.87 556.341 173.379 558.927 171.245C559.509 170.793 560.091 170.405 560.737 170.082C567.072 166.397 573.408 162.712 579.808 159.092C580.454 158.704 581.101 158.381 581.747 158.058C583.751 157.088 583.751 157.153 583.622 154.89C583.492 154.826 583.492 154.632 583.428 154.114Z" fill="#2D3130"/>
<path d="M585.821 154.244C586.015 155.989 586.273 157.993 586.532 160.062C587.178 165.686 587.825 171.31 588.536 176.934C588.601 177.516 588.73 178.162 588.988 178.744C589.764 180.619 591.574 181.589 593.449 181.201C595.194 180.878 596.552 179.391 596.617 177.516C596.681 176.482 596.552 175.447 596.423 174.413C595.647 167.561 594.807 160.708 593.966 153.856C593.837 152.951 593.708 151.981 593.32 151.141C592.609 149.46 590.734 148.555 588.988 148.943C587.372 149.266 586.079 150.624 585.886 152.369C585.821 152.886 585.821 153.403 585.821 154.244Z" fill="#FFE2DC"/>
<path d="M584.916 166.914C584.657 165.104 584.463 163.229 584.205 161.419C584.011 160.256 583.623 160.062 582.524 160.514C582.136 160.708 581.813 160.902 581.425 161.096C574.831 164.91 568.237 168.724 561.579 172.538C561.126 172.797 560.674 173.055 560.286 173.379C559.122 174.413 558.67 175.706 558.993 177.257C559.381 178.938 560.48 179.908 562.096 180.296C563.324 180.619 564.359 180.166 565.328 179.585C571.405 176.094 577.482 172.538 583.558 169.112C584.528 168.66 585.045 168.013 584.916 166.914Z" fill="#FFE2DC"/>
<path d="M546.576 83.3925C544.119 83.3278 542.18 82.2935 540.952 80.1602C540.564 79.5138 540.305 78.8673 540.047 78.2208C537.138 71.627 534.229 65.0332 531.32 58.3747C531.061 57.7283 530.738 57.0818 530.479 56.3707C529.574 53.2678 531.061 49.9709 533.97 48.6133C536.944 47.2558 540.37 48.2901 542.115 51.0052C542.503 51.587 542.762 52.2981 543.085 52.9445C546.059 59.6676 548.968 66.3261 551.941 73.0492C552.2 73.6957 552.523 74.3421 552.717 75.0532C554.01 79.2552 550.907 83.3925 546.576 83.3925Z" fill="#2D3130"/>
<path d="M546.705 80.936C549.226 80.8713 551.036 78.4148 550.454 75.9583C550.325 75.4411 550.131 74.9886 549.937 74.5361C546.899 67.619 543.86 60.7666 540.822 53.8496C540.564 53.2031 540.24 52.5567 539.788 51.9749C538.624 50.488 536.685 50.1002 535.069 50.8759C533.323 51.7163 532.354 53.6557 532.806 55.4657C532.935 56.0475 533.194 56.6293 533.453 57.2111C536.426 63.9989 539.465 70.7866 542.438 77.5744C542.697 78.1562 542.955 78.738 543.279 79.2552C544.054 80.4188 545.283 80.936 546.705 80.936Z" fill="#FFE2DC"/>
<path d="M541.857 163.553C541.792 162.13 542.18 160.902 542.956 159.738C543.279 159.221 543.667 158.704 544.055 158.252C548.386 152.563 552.653 146.939 556.984 141.25C557.501 140.603 557.954 139.892 558.536 139.311C560.863 136.983 564.483 136.725 567.004 138.729C569.59 140.733 570.301 144.159 568.75 147.068C568.491 147.52 568.232 147.973 567.909 148.361C563.255 154.502 558.536 160.708 553.816 166.849C553.364 167.431 552.911 168.013 552.394 168.466C550.261 170.146 547.869 170.534 545.413 169.306C543.15 168.078 541.922 166.138 541.857 163.553Z" fill="#2D3130"/>
<path d="M544.313 164.264C544.378 165.169 545.154 166.268 546.511 166.979C547.934 167.754 549.356 167.561 550.584 166.591C551.23 166.074 551.748 165.427 552.265 164.781C556.725 158.963 561.121 153.145 565.582 147.262C566.034 146.68 566.487 146.098 566.745 145.452C567.521 143.771 567.069 141.896 565.646 140.733C564.16 139.504 562.026 139.505 560.539 140.797C560.022 141.25 559.57 141.832 559.117 142.414C554.657 148.232 550.261 154.05 545.8 159.932C545.412 160.45 545.089 160.967 544.766 161.484C544.378 162.13 544.313 162.841 544.313 164.264Z" fill="#FFE2DC"/>
<path d="M526.019 109.121C527.765 109.056 529.445 109.703 530.738 111.19C531.126 111.642 531.514 112.159 531.902 112.612C536.427 118.365 540.888 124.183 545.413 129.937C546.512 131.359 547.417 132.781 547.417 134.656C547.417 137.436 546.253 139.44 543.797 140.668C541.405 141.896 538.625 141.444 536.621 139.634C536.169 139.246 535.781 138.729 535.393 138.276C530.674 132.264 526.019 126.252 521.3 120.24C520.201 118.818 519.425 117.331 519.49 115.456C519.619 111.836 522.205 109.186 526.019 109.121Z" fill="#2D3130"/>
<path d="M526.277 111.578C523.11 111.513 521.106 114.487 522.334 117.137C522.593 117.719 522.98 118.172 523.368 118.689C528.087 124.701 532.742 130.713 537.461 136.725C537.784 137.113 538.107 137.5 538.495 137.888C540.047 139.246 542.051 139.246 543.602 138.018C545.154 136.789 545.542 134.721 544.637 133.04C544.249 132.329 543.732 131.682 543.214 131.036C538.883 125.476 534.552 119.982 530.285 114.422C529.833 113.84 529.38 113.258 528.928 112.741C528.023 111.966 527.118 111.578 526.277 111.578Z" fill="#FFE2DC"/>
<path d="M504.428 397.181C509.083 397.181 513.737 397.181 518.391 397.181C519.232 397.181 520.072 397.181 520.848 397.116C521.559 397.116 522.012 396.728 522.076 395.952C522.076 393.69 522.141 391.427 522.076 389.1C522.076 388.195 521.688 387.936 520.654 387.872C519.62 387.807 518.585 387.872 517.551 387.807C515.87 387.807 514.254 387.872 512.573 387.742C510.117 387.613 508.565 386.126 508.242 383.734C508.177 383.411 508.177 383.088 508.177 382.829C508.177 377.658 508.177 372.486 508.177 367.314C508.177 366.797 508.242 366.28 508.307 365.763C508.695 363.953 510.052 362.595 511.862 362.337C512.573 362.208 513.284 362.208 513.996 362.208C522.658 362.208 531.385 362.208 540.048 362.208C540.565 362.208 541.082 362.208 541.599 362.208C544.056 362.208 545.866 364.212 546.06 366.539C546.124 367.185 546.06 367.767 546.06 368.413C546.06 372.874 546.06 377.335 546.06 381.73C546.06 382.248 546.06 382.765 546.06 383.282C545.93 386.062 543.668 387.936 541.47 387.807C540.759 387.742 540.048 387.807 539.272 387.807C537.332 387.807 535.328 387.807 533.389 387.807C531.45 387.872 531.321 387.936 531.256 389.94C531.256 391.88 531.256 393.884 531.256 395.823C531.256 396.534 531.708 396.987 532.419 396.987C534.488 396.987 536.557 396.987 538.625 397.051C539.854 397.051 541.147 396.987 542.375 397.116C544.896 397.375 546.383 399.12 546.318 401.77C546.318 404.421 544.767 406.166 542.181 406.296C539.918 406.425 537.656 406.296 535.328 406.36C530.674 406.36 531.191 405.908 531.191 410.498C531.191 414.118 530.997 413.924 534.488 413.924C536.363 413.924 538.238 413.924 540.048 413.924C542.827 413.988 544.443 415.281 545.09 417.996C545.284 418.707 545.284 419.419 545.284 420.13C545.284 424.913 545.284 429.633 545.284 434.416C545.284 434.804 545.284 435.257 545.219 435.645C544.961 437.713 543.797 439.006 541.728 439.459C540.953 439.588 540.112 439.653 539.272 439.653C530.803 439.653 522.335 439.653 513.802 439.653C512.961 439.653 512.121 439.653 511.345 439.459C509.341 439.071 508.307 437.907 508.048 435.903C507.984 435.321 507.984 434.675 507.984 434.028C507.984 429.503 507.984 424.913 507.984 420.388C507.984 419.548 507.984 418.707 508.177 417.932C508.63 415.346 510.246 413.988 512.897 413.924C514.965 413.859 517.034 413.924 519.103 413.924C521.882 413.924 521.947 413.859 521.947 410.95C521.947 409.786 521.947 408.687 521.882 407.524C521.882 406.748 521.43 406.425 520.719 406.36C520.008 406.36 519.296 406.296 518.521 406.296C509.018 406.296 499.515 406.296 489.948 406.296C489.236 406.296 488.525 406.296 487.75 406.36C487.168 406.425 486.78 406.748 486.78 407.33C486.78 409.205 486.78 411.015 486.78 412.889C486.78 413.471 487.297 413.794 487.814 413.794C488.461 413.859 489.042 413.859 489.689 413.859C491.564 413.859 493.438 413.859 495.248 413.859C498.481 413.924 500.226 415.475 500.549 418.643C500.614 419.289 500.614 419.871 500.614 420.518C500.614 424.978 500.614 429.439 500.614 433.834C500.614 434.546 500.679 435.321 500.549 436.032C500.226 437.842 499.192 439.071 497.382 439.394C496.606 439.523 495.766 439.588 494.925 439.588C486.327 439.588 477.73 439.588 469.196 439.588C468.291 439.588 467.322 439.523 466.417 439.265C464.671 438.812 463.572 437.649 463.443 435.774C463.378 435.257 463.378 434.739 463.378 434.222C463.378 429.439 463.378 424.719 463.378 419.936C463.378 419.419 463.378 418.901 463.443 418.384C463.766 415.604 465.641 413.924 468.421 413.859C470.877 413.794 473.398 413.859 475.855 413.794C477.212 413.794 477.471 413.536 477.536 412.114C477.6 410.756 477.6 409.399 477.536 408.106C477.471 406.49 477.277 406.296 475.726 406.231C472.946 406.166 470.166 406.231 467.322 406.231C466.611 406.231 465.899 406.231 465.124 406.231C462.538 406.037 460.986 404.356 460.986 401.77C460.922 399.185 462.409 397.31 464.93 397.116C467.516 396.987 470.101 397.051 472.687 397.051C477.988 396.987 477.471 397.827 477.471 392.268C477.471 387.096 477.859 387.872 473.01 387.807C471.33 387.807 469.714 387.742 468.033 387.807C465.641 387.936 463.249 385.932 463.314 383.153C463.378 377.658 463.249 372.163 463.378 366.733C463.443 363.953 465.059 362.272 467.903 362.272C477.536 362.208 487.168 362.208 496.735 362.272C499.45 362.272 501.131 364.082 501.196 366.862C501.26 372.357 501.196 377.852 501.26 383.282C501.26 385.415 499.386 387.872 496.735 387.807C494.667 387.742 492.598 387.807 490.529 387.807C489.689 387.807 488.849 387.807 488.073 387.807C487.362 387.807 486.845 388.13 486.78 388.841C486.715 391.233 486.78 393.56 486.78 395.952C486.78 396.534 487.168 396.922 487.75 396.922C488.59 396.987 489.43 396.987 490.206 396.987C495.119 397.181 499.774 397.181 504.428 397.181Z" fill="#2D3130"/>
<path d="M481.993 430.085C481.993 430.085 481.993 430.15 481.993 430.085C484.773 430.085 487.552 430.15 490.332 430.085C491.496 430.085 491.754 429.762 491.819 428.598C491.884 427.241 491.884 425.948 491.819 424.59C491.754 423.362 491.302 422.909 490.073 422.845C488.522 422.78 486.97 422.78 485.419 422.78C481.734 422.78 477.985 422.78 474.3 422.845C473.201 422.845 472.749 423.297 472.749 424.332C472.749 425.883 472.749 427.434 472.813 428.986C472.813 429.697 473.266 430.085 473.977 430.085C476.692 430.085 479.342 430.085 481.993 430.085Z" fill="#F0FAFF"/>
<path d="M526.347 430.149C528.287 430.149 530.291 430.149 532.23 430.149C536.173 430.149 535.85 430.473 535.85 426.465C535.85 425.624 535.85 424.849 535.721 424.008C535.656 423.426 535.333 423.038 534.751 422.974C534.04 422.909 533.329 422.845 532.618 422.845C529.192 422.845 525.83 422.845 522.404 422.845C516.133 422.909 517.103 422.198 517.103 428.663C517.103 429.826 517.426 430.085 518.654 430.085C521.24 430.149 523.761 430.149 526.347 430.149Z" fill="#F0FAFF"/>
<path d="M482.318 371.193C479.926 371.193 477.534 371.193 475.207 371.193C474.69 371.193 474.172 371.258 473.655 371.258C473.138 371.322 472.88 371.646 472.88 372.033C472.815 373.65 472.815 375.33 472.88 376.947C472.88 377.334 473.332 377.658 473.72 377.722C474.431 377.787 475.142 377.787 475.853 377.787C479.667 377.787 483.481 377.787 487.295 377.787C492.402 377.722 491.821 378.369 491.821 373.068C491.821 371.581 491.497 371.193 490.011 371.193C487.489 371.128 484.904 371.193 482.318 371.193Z" fill="#F0FAFF"/>
<path d="M526.082 377.852C527.828 377.852 529.573 377.916 531.319 377.852C536.49 377.787 535.779 378.433 535.844 373.132C535.844 372.938 535.844 372.745 535.844 372.486C535.714 371.581 535.456 371.193 534.486 371.193C529.25 371.193 523.949 371.128 518.713 371.193C517.549 371.193 517.226 371.516 517.161 372.615C517.097 373.844 517.097 375.072 517.161 376.3C517.226 377.399 517.549 377.722 518.713 377.722C521.169 377.852 523.626 377.852 526.082 377.852Z" fill="#F0FAFF"/>
<path d="M503.718 350.119C491.823 350.119 479.929 350.119 468.034 350.119C467.129 350.119 466.159 350.184 465.254 350.054C462.798 349.86 461.311 348.244 461.246 345.788C461.181 343.266 462.41 341.521 464.737 341.004C465.513 340.875 466.353 340.875 467.193 340.875C470.102 340.875 473.012 340.875 475.856 340.875C477.407 340.875 477.666 340.616 477.666 339.065C477.731 336.867 477.731 334.733 477.666 332.535C477.666 330.984 477.407 330.725 475.856 330.661C473.593 330.596 471.331 330.661 469.004 330.661C468.163 330.661 467.323 330.661 466.547 330.402C464.931 329.95 463.832 328.98 463.509 327.234C463.185 325.295 463.379 323.485 465.06 322.192C465.836 321.61 466.741 321.416 467.646 321.416C469.715 321.416 471.783 321.416 473.852 321.416C474.692 321.416 475.533 321.416 476.308 321.352C477.02 321.352 477.472 320.899 477.472 320.188C477.537 319.154 477.537 318.119 477.537 317.085C477.537 316.18 477.537 315.21 477.666 314.305C478.054 312.107 479.799 310.75 482.127 310.75C484.389 310.75 486.134 312.107 486.522 314.305C486.652 315.016 486.652 315.728 486.652 316.439C486.652 317.473 486.652 318.507 486.652 319.542C486.716 321.029 486.975 321.287 488.526 321.287C491.112 321.352 493.698 321.352 496.284 321.287C497.706 321.287 498.934 321.675 499.904 322.774C502.102 325.36 500.744 329.691 497.383 330.402C496.607 330.596 495.767 330.531 494.926 330.531C492.664 330.531 490.401 330.531 488.074 330.596C487.04 330.596 486.716 330.919 486.652 331.889C486.587 334.475 486.652 337.061 486.652 339.646C486.652 340.357 487.104 340.745 487.88 340.81C488.526 340.81 489.108 340.875 489.755 340.875C499.387 340.875 509.019 340.875 518.586 340.875C519.298 340.875 520.009 340.875 520.784 340.81C521.366 340.745 521.754 340.422 521.754 339.84C521.754 337.125 521.819 334.475 521.754 331.76C521.754 330.984 521.237 330.661 520.526 330.661C518.263 330.661 516.001 330.661 513.673 330.596C512.833 330.596 511.993 330.596 511.217 330.467C508.76 330.014 507.403 328.075 507.532 325.489C507.661 323.226 509.471 321.287 511.734 321.352C513.673 321.416 515.677 321.352 517.617 321.352C518.522 321.352 519.491 321.352 520.397 321.287C521.366 321.222 521.689 320.899 521.754 319.994C521.819 318.831 521.754 317.732 521.819 316.568C521.819 315.857 521.819 315.081 521.948 314.435C522.401 312.172 524.275 310.685 526.602 310.75C528.93 310.815 530.74 312.366 530.998 314.758C531.192 316.503 531.063 318.249 531.128 320.059C531.192 321.029 531.515 321.287 532.485 321.352C533.326 321.416 534.166 321.416 534.942 321.416C536.881 321.416 538.885 321.481 540.824 321.416C543.475 321.287 545.35 323.485 545.35 325.877C545.35 328.592 543.798 330.402 541.083 330.596C538.691 330.725 536.299 330.661 533.972 330.661C531.128 330.661 531.128 330.725 531.128 333.634C531.128 335.574 531.128 337.578 531.128 339.517C531.128 340.487 531.515 340.81 532.485 340.81C535.071 340.875 537.657 340.81 540.243 340.875C541.148 340.875 542.117 340.875 543.022 341.069C545.285 341.65 546.449 343.46 546.19 346.046C545.996 348.373 544.639 349.86 542.247 350.054C541.342 350.119 540.372 350.119 539.467 350.119C527.701 350.119 515.742 350.119 503.718 350.119Z" fill="#2D3130"/>
<path d="M779.105 397.18C783.63 397.18 788.22 397.18 792.745 397.18C793.586 397.18 794.426 397.18 795.202 397.18C795.913 397.18 796.365 396.793 796.43 396.081C796.43 393.819 796.495 391.556 796.43 389.229C796.43 388.324 796.042 388.001 795.008 388.001C792.551 387.936 790.03 388.001 787.574 387.936C783.889 387.872 782.273 386.255 782.208 382.635C782.143 377.658 782.208 372.68 782.208 367.767C782.208 367.12 782.208 366.539 782.337 365.892C782.79 363.953 784.277 362.66 786.216 362.401C786.798 362.337 787.444 362.337 788.091 362.337C796.753 362.337 805.48 362.337 814.143 362.337C814.854 362.337 815.565 362.337 816.341 362.466C818.345 362.725 819.702 364.147 820.026 366.086C820.09 366.603 820.155 367.12 820.155 367.638C820.155 372.68 820.155 377.787 820.155 382.829C820.155 383.023 820.155 383.217 820.155 383.476C819.961 386.255 818.409 387.807 815.63 387.936C813.561 388.001 811.492 387.936 809.424 387.936C808.583 387.936 807.743 387.936 806.967 388.001C806.385 388.065 805.933 388.324 805.868 388.906C805.674 391.362 805.674 393.884 805.868 396.34C805.933 396.793 806.256 397.116 806.709 397.116C807.549 397.18 808.325 397.18 809.165 397.245C811.622 397.245 814.143 397.18 816.599 397.31C819.444 397.439 821.124 399.443 820.931 402.287C820.801 404.744 819.25 406.36 816.793 406.489C815.63 406.554 814.531 406.489 813.367 406.489C811.686 406.489 810.07 406.489 808.389 406.489C805.739 406.489 805.739 406.554 805.674 409.334C805.674 410.497 805.674 411.596 805.739 412.76C805.804 413.665 806.127 413.988 807.096 414.053C808.26 414.118 809.359 414.053 810.523 414.117C811.945 414.117 813.432 414.182 814.854 414.117C816.858 413.988 818.733 415.41 819.25 417.738C819.444 418.643 819.508 419.612 819.508 420.517C819.508 425.172 819.444 429.826 819.573 434.481C819.638 437.842 818.539 439.976 814.207 439.911C805.545 439.846 796.818 439.911 788.155 439.911C787.315 439.911 786.475 439.846 785.699 439.652C783.695 439.2 782.531 437.842 782.273 435.774C782.208 435.45 782.273 435.127 782.273 434.869C782.273 430.02 782.273 425.172 782.273 420.259C782.273 419.289 782.337 418.384 782.725 417.544C783.63 415.475 785.052 414.182 787.444 414.182C790.03 414.182 792.616 414.182 795.202 414.117C796.171 414.117 796.495 413.794 796.495 412.76C796.559 411.079 796.495 409.463 796.495 407.782C796.495 407.071 796.107 406.619 795.396 406.619C794.749 406.619 794.167 406.554 793.521 406.554C783.889 406.554 774.257 406.554 764.689 406.554C761.392 406.554 761.522 406.425 761.522 409.851C761.522 410.885 761.521 411.92 761.586 412.954C761.586 413.665 762.039 414.053 762.75 414.117C763.461 414.117 764.172 414.117 764.948 414.182C766.822 414.182 768.697 414.117 770.507 414.182C772.899 414.247 774.127 415.216 774.709 417.479C774.968 418.384 775.032 419.289 775.032 420.259C775.097 425.107 775.032 429.956 775.032 434.869C775.032 435.256 775.032 435.709 774.968 436.097C774.645 438.489 773.546 439.652 771.218 439.911C770.507 439.976 769.796 439.976 769.02 439.976C760.875 439.976 752.665 439.976 744.52 439.976C743.356 439.976 742.257 440.04 741.158 439.717C739.09 439.2 737.991 437.907 737.667 435.838C737.667 435.644 737.603 435.45 737.603 435.192C737.603 430.149 737.603 425.043 737.603 420C737.603 419.031 737.797 418.126 738.249 417.285C739.219 415.41 740.641 414.182 742.904 414.182C744.843 414.182 746.847 414.182 748.786 414.182C749.498 414.182 750.209 414.182 750.984 414.117C751.695 414.117 752.213 413.73 752.213 413.019C752.277 411.273 752.277 409.528 752.213 407.718C752.213 407.007 751.695 406.619 750.984 406.619C749.045 406.619 747.041 406.619 745.102 406.554C743.421 406.554 741.805 406.619 740.124 406.554C737.344 406.425 735.728 404.679 735.728 401.964C735.728 399.249 737.344 397.504 740.124 397.374C742.839 397.245 745.489 397.374 748.205 397.31C752.6 397.31 752.277 397.698 752.277 393.366C752.277 392.526 752.277 391.686 752.277 390.91C752.213 388.13 752.213 388.13 749.562 388.065C747.687 388.065 745.813 388.065 744.003 388.065C743.356 388.065 742.774 388.065 742.128 388.065C739.801 387.872 738.314 386.579 737.861 384.316C737.732 383.605 737.732 382.894 737.732 382.183C737.732 377.658 737.732 373.068 737.732 368.543C737.732 368.025 737.732 367.508 737.797 366.991C738.055 364.405 739.865 362.531 742.451 362.531C742.968 362.531 743.485 362.531 744.003 362.531C752.471 362.531 760.94 362.531 769.473 362.531C770.184 362.531 770.895 362.531 771.671 362.595C773.804 362.854 775.291 364.147 775.679 366.28C775.808 366.797 775.808 367.314 775.808 367.832C775.808 372.809 775.808 377.787 775.808 382.7C775.808 383.088 775.808 383.54 775.743 383.928C775.42 386.514 773.804 387.936 771.154 388.065C769.602 388.13 768.051 388.065 766.499 388.065C765.594 388.065 764.625 388.065 763.719 388.065C761.78 388.13 761.651 388.259 761.586 390.199C761.586 392.138 761.586 394.142 761.651 396.081C761.651 396.793 762.103 397.245 762.814 397.245C763.655 397.245 764.495 397.31 765.271 397.31C769.796 397.18 774.451 397.18 779.105 397.18Z" fill="#2D3130"/>
<path d="M756.35 430.15C757.901 430.15 759.453 430.214 761.004 430.15C762.621 430.085 764.301 430.602 765.853 429.697C766.305 427.952 766.047 426.206 766.047 424.461C766.047 424.332 765.982 424.267 765.982 424.138C765.853 423.426 765.4 423.039 764.754 422.974C764.237 422.909 763.72 422.909 763.202 422.909C758.742 422.909 754.281 422.909 749.885 422.909C749.562 422.909 749.239 422.909 748.98 422.909C747.623 423.039 747.3 423.297 747.235 424.59C747.17 425.754 747.17 426.853 747.235 428.016C747.3 430.02 747.364 430.15 749.304 430.214C751.631 430.15 753.958 430.15 756.35 430.15Z" fill="#F0FAFF"/>
<path d="M800.761 430.149C802.184 430.149 803.671 430.149 805.093 430.149C806.321 430.149 807.549 430.149 808.842 430.085C809.553 430.085 810.006 429.697 810.006 428.921C810.006 427.24 810.006 425.624 810.006 423.943C810.006 423.362 809.618 423.038 809.036 422.909C808.713 422.844 808.39 422.845 808.131 422.845C803.283 422.845 798.434 422.845 793.521 422.845C793.327 422.845 793.133 422.844 792.875 422.909C791.97 423.038 791.517 423.426 791.517 424.267C791.453 425.689 791.453 427.176 791.517 428.598C791.517 429.762 791.84 430.085 793.004 430.085C795.59 430.149 798.176 430.149 800.761 430.149Z" fill="#F0FAFF"/>
<path d="M756.414 377.852C759.064 377.852 761.779 377.852 764.43 377.852C765.658 377.852 765.916 377.528 765.981 376.429C766.046 375.201 766.046 373.973 765.981 372.745C765.916 371.646 765.593 371.258 764.43 371.258C759.193 371.258 753.957 371.258 748.656 371.258C747.493 371.258 747.169 371.581 747.105 372.68C747.04 373.908 747.04 375.137 747.105 376.365C747.169 377.464 747.493 377.787 748.656 377.852C751.307 377.852 753.892 377.852 756.414 377.852Z" fill="#F0FAFF"/>
<path d="M800.694 377.787C800.694 377.852 800.694 377.852 800.694 377.787C802.246 377.787 803.797 377.852 805.349 377.787C810.779 377.722 810.003 378.369 810.003 372.939C810.003 371.387 809.745 371.129 808.193 371.129C804.185 371.064 800.177 371.064 796.169 371.129C790.804 371.129 791.45 370.482 791.45 376.3C791.45 377.464 791.773 377.787 792.937 377.787C795.523 377.852 798.109 377.787 800.694 377.787Z" fill="#F0FAFF"/>
<path d="M778.005 350.119C766.111 350.119 754.216 350.119 742.321 350.119C741.416 350.119 740.446 350.119 739.541 350.054C737.279 349.86 735.792 348.309 735.598 346.046C735.404 343.525 736.632 341.65 738.895 341.068C739.606 340.874 740.317 340.874 741.028 340.874C743.614 340.874 746.2 340.874 748.786 340.874C749.497 340.874 750.208 340.874 750.984 340.81C751.695 340.745 752.083 340.293 752.147 339.582C752.147 337.513 752.212 335.444 752.212 333.376C752.212 332.858 752.212 332.341 752.147 331.824C752.083 331.113 751.695 330.66 750.984 330.66C748.721 330.596 746.458 330.66 744.196 330.596C743.291 330.596 742.321 330.66 741.416 330.466C739.8 330.143 738.572 329.174 738.184 327.493C737.796 325.747 737.796 324.002 739.218 322.58C740.059 321.739 741.093 321.352 742.321 321.416C744.261 321.416 746.265 321.416 748.204 321.416C749.044 321.416 749.885 321.416 750.66 321.416C751.824 321.352 752.147 321.093 752.212 319.929C752.277 318.895 752.212 317.861 752.277 316.826C752.277 316.115 752.277 315.404 752.341 314.628C752.6 312.624 754.022 311.138 755.897 310.814C758.159 310.426 760.163 311.396 761.004 313.4C761.327 314.176 761.392 315.016 761.521 315.792C761.585 316.632 761.521 317.473 761.521 318.249C761.521 321.287 761.521 321.287 764.624 321.287C766.822 321.287 768.955 321.416 771.153 321.287C773.868 321.093 776.454 323.485 775.549 327.234C775.096 329.238 773.609 330.402 771.218 330.531C769.149 330.66 767.08 330.531 765.012 330.596C764.171 330.596 763.331 330.596 762.555 330.66C761.973 330.725 761.585 331.113 761.585 331.63C761.585 334.345 761.585 336.996 761.585 339.711C761.585 340.293 761.909 340.68 762.555 340.745C763.202 340.81 763.783 340.81 764.43 340.81C774.256 340.81 784.082 340.81 793.908 340.81C794.102 340.81 794.296 340.81 794.555 340.81C796.559 340.745 796.623 340.68 796.623 338.676C796.623 336.608 796.623 334.539 796.623 332.471C796.623 330.79 796.429 330.66 794.878 330.596C792.615 330.531 790.353 330.596 788.025 330.596C787.185 330.596 786.345 330.531 785.569 330.337C783.823 329.885 782.789 328.592 782.466 326.846C782.143 325.101 782.595 323.549 783.953 322.321C784.793 321.61 785.763 321.352 786.797 321.352C788.672 321.352 790.547 321.352 792.357 321.352C793.197 321.352 794.037 321.352 794.813 321.352C796.3 321.287 796.494 321.093 796.559 319.477C796.623 318.249 796.559 317.02 796.559 315.727C796.559 314.758 796.752 313.853 797.205 313.077C798.175 311.267 800.049 310.426 802.183 310.814C804.057 311.138 805.544 312.624 805.674 314.628C805.803 316.051 805.738 317.537 805.738 318.96C805.803 321.158 805.868 321.287 808.001 321.352C810.069 321.416 812.138 321.352 814.207 321.352C814.918 321.352 815.629 321.352 816.405 321.416C818.409 321.675 819.766 323.097 820.025 325.101C820.413 328.398 818.732 330.467 815.306 330.596C812.72 330.66 810.134 330.596 807.548 330.66C805.997 330.66 805.803 330.919 805.803 332.535C805.738 334.798 805.803 337.06 805.803 339.388C805.803 340.551 806.126 340.874 807.29 340.874C809.746 340.939 812.267 340.874 814.724 340.939C815.564 340.939 816.405 340.874 817.18 341.004C819.637 341.392 821.059 343.331 820.93 345.917C820.801 348.373 819.249 349.925 816.793 350.119C815.888 350.183 814.918 350.183 814.013 350.183C801.989 350.119 790.029 350.119 778.005 350.119Z" fill="#2D3130"/>
<path d="M67.0404 350.248C67.0404 351.993 66.9111 353.61 67.7515 355.161C68.8504 357.165 70.2727 358.652 72.5352 359.298C73.2463 359.492 73.8928 359.751 74.6039 359.945C79.2584 361.238 82.4906 365.698 82.232 370.353C82.1674 371.064 82.1674 371.775 82.1674 372.551C82.0381 376.3 84.8825 379.791 87.9208 380.502C88.8259 380.696 89.7309 381.019 90.5713 381.342C94.7732 382.894 97.359 386.579 97.4883 391.104C97.4883 392.138 97.4883 393.172 97.4237 394.207C97.2944 397.18 99.6863 400.542 102.725 401.512C103.694 401.835 104.729 402.094 105.698 402.417C107.379 402.999 108.866 403.968 110.03 405.326C110.353 405.714 110.611 406.166 110.805 406.619C110.999 407.136 110.741 407.588 110.223 407.912C109.836 408.17 109.448 408.17 109.06 407.912C108.995 407.847 108.866 407.847 108.801 407.718C107.12 405.52 104.729 404.615 102.207 403.968C98.1348 402.869 94.6439 398.667 94.8379 393.625C94.9025 392.785 94.9025 391.944 94.9025 391.168C94.7732 387.613 92.7692 384.833 89.4723 383.605C88.7612 383.346 88.1148 383.152 87.4037 382.959C82.6199 381.795 79.2584 377.011 79.5816 372.033C79.6462 371.322 79.5816 370.611 79.6462 369.836C79.7755 366.926 77.4483 363.565 74.3453 362.531C73.3756 362.207 72.3413 361.949 71.3716 361.626C67.1697 360.203 64.2606 355.808 64.4546 351.929C64.5192 351.088 64.4546 350.248 64.5192 349.472C64.5192 347.985 64.2606 346.628 63.5495 345.27C63.2909 344.818 63.0324 344.365 62.9031 343.913C62.7738 343.396 62.9031 342.878 63.4203 342.62C63.9374 342.361 64.4546 342.426 64.8424 342.749C65.2303 343.072 65.5536 343.525 65.7475 343.977C66.8465 346.046 67.2343 348.115 67.0404 350.248Z" fill="#2D3130"/>
<path d="M83.9735 400.348C83.9735 398.991 84.1675 397.633 83.5857 396.34C82.616 394.078 81.0645 392.332 78.608 391.556C77.703 391.298 76.7979 391.039 75.9575 390.716C71.5617 389.294 68.6526 384.963 68.8465 380.825C68.9112 379.92 68.9112 378.951 68.9112 378.045C68.7819 374.361 66.7779 371.581 63.2224 370.353C62.2527 370.029 61.2184 369.771 60.3134 369.383C56.0468 367.638 53.8488 364.405 53.5903 359.816C53.5256 359.169 53.5903 358.587 53.5903 357.941C53.7196 356.066 53.5256 354.256 52.4267 352.575C52.2327 352.252 52.1034 351.799 52.0388 351.412C51.9741 350.959 52.2327 350.636 52.5559 350.377C52.9438 350.119 53.3317 350.119 53.7196 350.313C54.0428 350.571 54.366 350.83 54.6246 351.153C55.5296 352.575 56.1114 354.127 56.1761 355.807C56.1761 357.036 56.1114 358.264 56.1761 359.557C56.3054 363.112 58.3094 365.892 61.6709 367.056C62.6406 367.379 63.6749 367.573 64.6446 367.961C68.9112 369.642 71.1738 372.874 71.497 377.399C71.5617 378.433 71.5617 379.468 71.4324 380.502C71.2384 383.476 73.501 387.16 77.0565 388.195C77.9615 388.453 78.8666 388.712 79.7069 389.035C83.9089 390.457 86.8179 394.789 86.624 398.732C86.5594 399.443 86.624 400.154 86.5593 400.93C86.3008 404.421 88.4987 408.429 92.7653 409.528C93.735 409.786 94.7693 410.11 95.6743 410.497C97.3551 411.209 98.7127 412.243 99.6824 413.794C100.07 414.376 100.135 414.958 99.6824 415.475C99.2298 415.992 98.3894 415.928 97.743 415.346C97.6783 415.281 97.6137 415.217 97.549 415.087C97.4198 414.958 97.2905 414.764 97.1612 414.635C96.0622 413.471 94.7047 412.76 93.2178 412.307C92.636 412.114 91.9896 411.984 91.4077 411.79C86.7533 410.174 84.0382 406.36 83.9735 401.447C83.9735 401.124 83.9735 400.736 83.9735 400.348Z" fill="#2D3130"/>
<path d="M772.962 182.752C765.14 182.752 757.383 182.817 749.561 182.817C748.332 182.817 747.104 182.882 745.811 182.946C738.83 183.14 732.365 185.144 726.547 189.088C715.299 196.716 709.351 207.317 709.222 220.958C709.093 237.636 709.157 254.25 709.222 270.928C709.222 275.583 708.834 274.936 713.424 274.936C748.268 274.936 783.112 274.807 817.955 274.807C827.588 274.807 837.284 274.807 846.916 274.807C826.618 241.127 801.6 209.839 772.962 182.752Z" fill="#FFCE56"/>
</svg>
