<svg width="90" height="90" viewBox="0 0 90 90" fill="none" xmlns="http://www.w3.org/2000/svg">
<g clip-path="url(#clip0_29_644)">
<path d="M34.6445 34.6424L27.1645 23.9504C26.9151 23.5837 26.6585 23.2244 26.3945 22.8724C26.1451 22.5204 25.8958 22.1611 25.6465 21.7944H25.6025L25.2505 31.3424C25.2358 31.7091 25.2211 32.0831 25.2065 32.4644C25.1918 32.8311 25.1551 33.1831 25.0965 33.5204C25.3605 33.5057 25.6245 33.4911 25.8885 33.4764C26.1525 33.4617 26.4165 33.4471 26.6805 33.4324L26.6365 34.4004H22.6105L22.6325 33.6744C23.0871 33.6744 23.4171 33.5791 23.6225 33.3884C23.8425 33.1831 23.9891 32.9484 24.0625 32.6844C24.1358 32.4057 24.1725 32.1564 24.1725 31.9364L24.6565 22.1024C24.6858 21.7211 24.7078 21.3471 24.7225 20.9804C24.7371 20.6137 24.7518 20.2471 24.7665 19.8804C24.5318 19.8951 24.2898 19.9097 24.0405 19.9244C23.7911 19.9391 23.5418 19.9537 23.2925 19.9684L23.3365 19.0004H25.9545L32.9505 28.9444C33.2585 29.3844 33.5665 29.8244 33.8745 30.2644C34.1825 30.7044 34.4905 31.1444 34.7985 31.5844H34.8425L35.3045 21.4644C35.3338 21.1417 35.3558 20.8484 35.3705 20.5844C35.3998 20.3204 35.4291 20.0857 35.4585 19.8804C35.1945 19.8951 34.9305 19.9097 34.6665 19.9244C34.4025 19.9391 34.1385 19.9537 33.8745 19.9684L33.9185 19.0004H37.9665L37.9225 19.7264C37.3798 19.7411 36.9985 19.8657 36.7785 20.1004C36.5731 20.3351 36.4485 20.6504 36.4045 21.0464C36.3751 21.4424 36.3458 21.9044 36.3165 22.4324L35.7005 34.6424H34.6445Z" fill="white"/>
<path d="M54.4154 18.6484C55.7061 18.6484 56.8134 18.8757 57.7374 19.3304C58.6614 19.7851 59.4168 20.3864 60.0034 21.1344C60.6048 21.8677 61.0448 22.6891 61.3234 23.5984C61.6021 24.4931 61.7414 25.3877 61.7414 26.2824C61.7414 27.2211 61.5728 28.1891 61.2354 29.1864C60.9128 30.1691 60.4214 31.0857 59.7614 31.9364C59.1014 32.7724 58.2654 33.4544 57.2534 33.9824C56.2561 34.4957 55.0828 34.7524 53.7334 34.7524C52.4428 34.7524 51.3354 34.5324 50.4114 34.0924C49.4874 33.6377 48.7248 33.0437 48.1234 32.3104C47.5368 31.5771 47.1041 30.7704 46.8254 29.8904C46.5468 28.9957 46.4074 28.1011 46.4074 27.2064C46.4074 26.0771 46.5908 24.9991 46.9574 23.9724C47.3388 22.9457 47.8814 22.0364 48.5854 21.2444C49.2894 20.4377 50.1328 19.8071 51.1154 19.3524C52.0981 18.8831 53.1981 18.6484 54.4154 18.6484ZM54.3054 19.5284C53.3814 19.5284 52.5601 19.7411 51.8414 20.1664C51.1374 20.5917 50.5361 21.1564 50.0374 21.8604C49.5534 22.5644 49.1794 23.3417 48.9154 24.1924C48.6514 25.0284 48.5194 25.8717 48.5194 26.7224C48.5048 27.4704 48.5928 28.2624 48.7834 29.0984C48.9741 29.9197 49.2748 30.6897 49.6854 31.4084C50.1108 32.1271 50.6608 32.7137 51.3354 33.1684C52.0248 33.6231 52.8608 33.8504 53.8434 33.8504C54.7968 33.8504 55.6328 33.6377 56.3514 33.2124C57.0701 32.7871 57.6714 32.2224 58.1554 31.5184C58.6394 30.7997 59.0061 30.0151 59.2554 29.1644C59.5048 28.3137 59.6294 27.4704 59.6294 26.6344C59.6294 25.7691 59.5121 24.9184 59.2774 24.0824C59.0574 23.2317 58.7201 22.4691 58.2654 21.7944C57.8254 21.1051 57.2754 20.5551 56.6154 20.1444C55.9554 19.7337 55.1854 19.5284 54.3054 19.5284Z" fill="white"/>
<path d="M26.1903 46.5557C27.6129 46.5704 28.7423 46.7537 29.5783 47.1057C30.4289 47.4577 31.0303 47.9344 31.3823 48.5357C31.7489 49.1224 31.9103 49.8044 31.8663 50.5817C31.8369 51.139 31.6976 51.711 31.4483 52.2977C31.2136 52.8697 30.7956 53.3904 30.1943 53.8597C29.5929 54.329 28.7276 54.681 27.5983 54.9157C27.8329 55.1797 28.0089 55.3777 28.1263 55.5097C28.2436 55.627 28.3389 55.7297 28.4123 55.8177C28.4856 55.891 28.5663 56.001 28.6543 56.1477C28.7423 56.2944 28.8743 56.5217 29.0503 56.8297L30.4143 59.1837C30.6489 59.5797 30.8689 59.939 31.0743 60.2617C31.2943 60.5697 31.5509 60.819 31.8443 61.0097C32.1523 61.1857 32.5336 61.2737 32.9883 61.2737L32.9443 61.9997H30.2603C29.9376 61.721 29.6223 61.369 29.3143 60.9437C29.0209 60.5037 28.7276 60.0417 28.4343 59.5577L27.0923 57.2037C26.9163 56.881 26.7183 56.5217 26.4983 56.1257C26.2783 55.7297 26.0216 55.3924 25.7283 55.1137C25.5963 55.1284 25.4056 55.1357 25.1563 55.1357C24.9216 55.1357 24.7016 55.1357 24.4963 55.1357C24.2909 55.121 24.1663 55.1137 24.1223 55.1137L23.9023 59.3817C23.8876 59.7777 23.8656 60.1224 23.8363 60.4157C23.8069 60.6944 23.7776 60.929 23.7483 61.1197C23.9243 61.105 24.1003 61.0977 24.2763 61.0977C24.4523 61.083 24.6283 61.0684 24.8043 61.0537C24.9803 61.039 25.1563 61.0317 25.3323 61.0317L25.2883 61.9997H20.4263L20.4703 61.2737C21.0276 61.2444 21.4163 61.1197 21.6363 60.8997C21.8563 60.665 21.9883 60.3497 22.0323 59.9537C22.0763 59.543 22.1056 59.081 22.1203 58.5677L22.6263 49.0637C22.6409 48.7704 22.6629 48.4917 22.6923 48.2277C22.7216 47.949 22.7509 47.6997 22.7803 47.4797C22.5163 47.4944 22.2449 47.509 21.9663 47.5237C21.7023 47.5384 21.4383 47.553 21.1743 47.5677L21.2403 46.5997C22.0616 46.585 22.8756 46.5704 23.6823 46.5557C24.5036 46.541 25.3396 46.541 26.1903 46.5557ZM26.0583 47.3917C25.5449 47.3917 25.1783 47.4944 24.9583 47.6997C24.7383 47.905 24.5989 48.1984 24.5403 48.5797C24.4816 48.9464 24.4376 49.3937 24.4083 49.9217L24.1663 54.2557C24.4009 54.2704 24.6209 54.285 24.8263 54.2997C25.0463 54.3144 25.2809 54.3144 25.5303 54.2997C26.3369 54.2704 27.0556 54.1384 27.6863 53.9037C28.3169 53.669 28.8156 53.295 29.1823 52.7817C29.5636 52.2684 29.7763 51.5937 29.8203 50.7577C29.8496 50.2004 29.7909 49.7164 29.6443 49.3057C29.5123 48.8804 29.2923 48.5284 28.9843 48.2497C28.6909 47.9564 28.2949 47.7437 27.7963 47.6117C27.3123 47.465 26.7329 47.3917 26.0583 47.3917Z" fill="white"/>
<path d="M56.9133 46.5997L56.8693 47.3257C56.356 47.3404 55.9893 47.4504 55.7693 47.6557C55.5493 47.8464 55.41 48.125 55.3513 48.4917C55.2926 48.8437 55.2486 49.2837 55.2193 49.8117L54.7133 59.3817C54.6986 59.7777 54.6766 60.1224 54.6473 60.4157C54.618 60.6944 54.5886 60.929 54.5593 61.1197C54.8233 61.105 55.0873 61.0904 55.3513 61.0757C55.6153 61.061 55.8793 61.0464 56.1433 61.0317L56.0993 61.9997H51.2373L51.2813 61.2737C51.8386 61.2444 52.2273 61.1197 52.4473 60.8997C52.6673 60.665 52.7993 60.3497 52.8433 59.9537C52.8873 59.543 52.9166 59.081 52.9313 58.5677L53.4373 49.0637C53.452 48.7704 53.474 48.4917 53.5033 48.2277C53.5326 47.949 53.562 47.6997 53.5913 47.4797C53.3273 47.4944 53.0633 47.509 52.7993 47.5237C52.5353 47.5384 52.2713 47.553 52.0073 47.5677L52.0513 46.5997H56.9133Z" fill="white"/>
</g>
<rect x="1" y="1" width="81.9977" height="81.9977" stroke="#FFCE56" stroke-width="2"/>
<rect x="6.50244" y="6.49976" width="82.9977" height="82.9977" stroke="white" stroke-opacity="0.7"/>
<defs>
<clipPath id="clip0_29_644">
<rect width="83.9977" height="83.9977" fill="white"/>
</clipPath>
</defs>
</svg>
