<svg width="377" height="147" viewBox="0 0 377 147" fill="none" xmlns="http://www.w3.org/2000/svg">
<path d="M157.725 45.1624H12.1249L10.5249 37.3094H159.325L157.725 45.1624Z" fill="#F79666"/>
<path d="M157.725 46.6481H12.1249C11.4249 46.6481 10.8249 46.1175 10.7249 45.4808L9.1249 37.6278C9.0249 37.2033 9.12489 36.6727 9.42489 36.3543C9.72489 36.036 10.1249 35.8237 10.5249 35.8237H159.325C159.725 35.8237 160.125 36.036 160.425 36.3543C160.725 36.6727 160.825 37.2033 160.725 37.6278L159.125 45.4808C159.025 46.1175 158.425 46.6481 157.725 46.6481ZM13.2249 43.5706H156.525L157.525 38.7951H12.3249L13.2249 43.5706Z" fill="#001542"/>
<path d="M160.125 3.13834C140.025 6.64035 119.825 8.44441 99.4249 8.44441H94.4249H75.325H70.325C50.025 8.44441 29.7249 6.64035 9.62494 3.13834L1.32495 1.65265L12.825 20.0117H83.6249H85.9249H156.925L168.425 1.65265L160.125 3.13834Z" fill="#F16974"/>
<path d="M156.925 21.4973H12.925C12.425 21.4973 12.025 21.2851 11.725 20.8606L0.225 2.50164C-0.075 1.97103 -0.075 1.3343 0.225 0.803691C0.525 0.273085 1.12502 0.0608516 1.62502 0.166973L9.92501 1.65266C29.825 5.15467 50.125 6.95873 70.325 6.95873H99.425C119.625 6.95873 139.925 5.15467 159.825 1.65266L168.125 0.166973C168.725 0.0608516 169.225 0.379206 169.525 0.803691C169.825 1.3343 169.825 1.97103 169.525 2.50164L158.025 20.8606C157.825 21.2851 157.425 21.4973 156.925 21.4973ZM13.725 18.4198H156.125L165.325 3.66896L160.325 4.51794C140.225 8.01994 119.725 9.824 99.425 9.824H70.325C50.025 9.824 29.525 8.01994 9.42501 4.51794L4.42501 3.66896L13.725 18.4198Z" fill="#001542"/>
<path d="M159.625 20.0117H10.2251V25.7422H159.625V20.0117Z" fill="#455E6B"/>
<path d="M159.625 27.334H10.2249C9.42491 27.334 8.82495 26.6973 8.82495 25.8483V20.1178C8.82495 19.2688 9.42491 18.6321 10.2249 18.6321H159.625C160.425 18.6321 161.025 19.2688 161.025 20.1178V25.8483C161.125 26.5912 160.425 27.334 159.625 27.334ZM11.6249 24.2565H158.225V21.4974H11.6249V24.2565Z" fill="#001542"/>
<path d="M32.1251 25.7422H24.2251V113.398H32.1251V25.7422Z" fill="#F16974"/>
<path d="M32.0251 114.99H24.1251C23.3251 114.99 22.7251 114.354 22.7251 113.505V25.8483C22.7251 24.9993 23.3251 24.3626 24.1251 24.3626H32.0251C32.8251 24.3626 33.4251 24.9993 33.4251 25.8483V113.505C33.5251 114.247 32.8251 114.99 32.0251 114.99ZM25.6251 111.913H30.6251V27.2279H25.6251V111.913Z" fill="#001542"/>
<path d="M35.2249 113.505H21.0249V137.17H35.2249V113.505Z" fill="#455E6B"/>
<path d="M35.225 138.655H21.025C20.225 138.655 19.625 138.019 19.625 137.17V113.505C19.625 112.656 20.225 112.019 21.025 112.019H35.225C36.025 112.019 36.625 112.656 36.625 113.505V137.17C36.625 137.913 36.025 138.655 35.225 138.655ZM22.525 135.578H33.825V114.99H22.525V135.578Z" fill="#001542"/>
<path d="M145.725 25.7422H137.825V113.398H145.725V25.7422Z" fill="#F16974"/>
<path d="M145.625 114.99H137.725C136.925 114.99 136.325 114.354 136.325 113.505V25.8483C136.325 24.9993 136.925 24.3626 137.725 24.3626H145.625C146.425 24.3626 147.025 24.9993 147.025 25.8483V113.505C147.125 114.247 146.425 114.99 145.625 114.99ZM139.225 111.913H144.225V27.2279H139.225V111.913Z" fill="#001542"/>
<path d="M148.825 113.505H134.625V137.17H148.825V113.505Z" fill="#455E6B"/>
<path d="M148.825 138.655H134.625C133.825 138.655 133.225 138.019 133.225 137.17V113.505C133.225 112.656 133.825 112.019 134.625 112.019H148.825C149.625 112.019 150.225 112.656 150.225 113.505V137.17C150.225 137.913 149.625 138.655 148.825 138.655ZM136.125 135.578H147.425V114.99H136.125V135.578Z" fill="#001542"/>
<path d="M165.925 138.655H13.2249C12.4249 138.655 11.825 138.019 11.825 137.17C11.825 136.321 12.4249 135.684 13.2249 135.684H165.925C166.725 135.684 167.325 136.321 167.325 137.17C167.325 137.913 166.725 138.655 165.925 138.655Z" fill="#001542"/>
<path d="M198.143 125.8L188.383 99.48C188.009 98.4667 187.529 97.0267 186.943 95.16C186.356 93.24 185.769 91.1333 185.183 88.84C184.596 86.5467 184.089 84.3333 183.663 82.2H183.583C183.529 84.92 183.449 87.5333 183.343 90.04C183.289 92.5467 183.183 95 183.023 97.4L182.143 111.88C182.089 113.32 181.983 114.707 181.823 116.04C181.663 117.373 181.529 118.387 181.423 119.08C182.329 118.973 183.423 118.92 184.703 118.92C186.036 118.867 186.969 118.84 187.503 118.84L187.183 125H168.943L169.263 119.72C170.489 119.667 171.503 119.507 172.303 119.24C173.156 118.973 173.823 118.36 174.303 117.4C174.783 116.44 175.103 114.893 175.263 112.76L177.343 82.12C177.449 80.68 177.556 79.2933 177.663 77.96C177.823 76.6267 177.956 75.6133 178.063 74.92C177.209 74.9733 176.116 75.0267 174.783 75.08C173.503 75.08 172.569 75.1067 171.983 75.16L172.383 69H189.503L200.463 100.04C201.369 102.493 202.089 104.787 202.623 106.92C203.209 109.053 203.769 111.08 204.303 113H204.383C205.129 111.133 205.876 109.267 206.623 107.4C207.369 105.533 208.089 103.747 208.783 102.04C210.329 98.36 211.876 94.68 213.423 91C214.969 87.32 216.489 83.6667 217.983 80.04C219.529 76.36 221.076 72.68 222.623 69H241.263L240.943 74.28C239.769 74.3333 238.729 74.4933 237.823 74.76C236.916 75.0267 236.196 75.64 235.663 76.6C235.183 77.5067 234.916 79.0533 234.863 81.24L234.463 111.88C234.463 113.32 234.383 114.707 234.223 116.04C234.063 117.373 233.903 118.387 233.743 119.08C234.649 118.973 235.743 118.92 237.023 118.92C238.356 118.867 239.289 118.84 239.823 118.84L239.503 125H217.103L217.423 119.72C218.649 119.667 219.689 119.507 220.543 119.24C221.449 118.973 222.143 118.36 222.623 117.4C223.156 116.44 223.423 114.893 223.423 112.76L223.663 95.8C223.716 95.16 223.743 94.04 223.743 92.44C223.743 90.7867 223.743 89 223.743 87.08C223.743 85.1067 223.743 83.2933 223.743 81.64H223.663L219.903 90.76L205.343 125.8H198.143ZM264.798 84.12C267.145 84.12 269.225 84.4667 271.038 85.16C272.852 85.8533 274.265 86.9467 275.278 88.44C276.292 89.9333 276.798 91.8533 276.798 94.2C276.798 96.3867 276.132 98.2533 274.798 99.8C273.518 101.293 271.812 102.52 269.678 103.48C267.598 104.44 265.305 105.24 262.798 105.88C260.292 106.467 257.865 106.92 255.518 107.24C255.518 110.28 255.865 112.627 256.558 114.28C257.305 115.88 258.238 117 259.358 117.64C260.478 118.227 261.598 118.52 262.718 118.52C263.625 118.52 264.692 118.36 265.918 118.04C267.198 117.667 268.478 116.92 269.758 115.8C271.038 114.68 272.158 113.027 273.118 110.84L277.598 113C276.105 116.467 274.425 119.133 272.558 121C270.692 122.867 268.745 124.147 266.718 124.84C264.692 125.533 262.638 125.88 260.558 125.88C255.652 125.933 251.758 124.52 248.878 121.64C245.998 118.76 244.558 114.36 244.558 108.44C244.558 105.88 244.958 103.187 245.758 100.36C246.558 97.5333 247.758 94.8933 249.358 92.44C251.012 89.9867 253.118 87.9867 255.678 86.44C258.238 84.8933 261.278 84.12 264.798 84.12ZM263.918 89.4C262.105 89.4 260.638 90.04 259.518 91.32C258.398 92.6 257.545 94.2267 256.958 96.2C256.372 98.12 255.972 100.067 255.758 102.04C258.638 101.507 260.932 100.787 262.638 99.88C264.345 98.9733 265.572 97.9333 266.318 96.76C267.118 95.5867 267.492 94.36 267.438 93.08C267.385 91.7467 266.985 90.8133 266.238 90.28C265.492 89.6933 264.718 89.4 263.918 89.4ZM316.217 125.88C313.283 125.88 311.283 125.08 310.217 123.48C309.203 121.88 308.697 119.667 308.697 116.84C308.697 115.24 308.803 113.453 309.017 111.48C309.23 109.453 309.443 107.4 309.657 105.32C309.923 103.24 310.163 101.293 310.377 99.48C310.59 97.6133 310.697 96.0667 310.697 94.84C310.697 94.04 310.617 93.4 310.457 92.92C310.297 92.3867 310.057 92.0133 309.737 91.8C309.417 91.5867 308.99 91.48 308.457 91.48C307.497 91.48 306.483 92.0667 305.417 93.24C304.403 94.4133 303.417 96.0133 302.457 98.04C301.497 100.013 300.643 102.227 299.897 104.68C299.15 107.08 298.537 109.56 298.057 112.12C297.63 114.627 297.417 117 297.417 119.24C297.417 119.933 297.443 120.92 297.497 122.2C297.55 123.427 297.603 124.36 297.657 125H287.337C287.23 123.88 287.15 123.107 287.097 122.68C287.097 122.2 287.097 121.693 287.097 121.16C287.097 120.04 287.15 118.733 287.257 117.24C287.417 115.693 287.603 114.04 287.817 112.28C288.03 110.467 288.243 108.68 288.457 106.92C288.617 105.48 288.777 104.093 288.937 102.76C289.15 101.373 289.337 100.093 289.497 98.92C289.657 97.6933 289.763 96.6267 289.817 95.72C289.923 94.8133 289.977 94.12 289.977 93.64C289.977 92.7333 289.843 92.1733 289.577 91.96C289.363 91.6933 289.123 91.56 288.857 91.56C288.27 91.56 287.657 92.0133 287.017 92.92C286.377 93.8267 285.71 95.48 285.017 97.88L280.617 96.6C280.883 95.48 281.257 94.2 281.737 92.76C282.217 91.32 282.883 89.96 283.737 88.68C284.59 87.3467 285.63 86.2533 286.857 85.4C288.083 84.5467 289.577 84.12 291.337 84.12C292.51 84.12 293.603 84.3333 294.617 84.76C295.63 85.1867 296.457 85.9333 297.097 87C297.737 88.0133 298.057 89.48 298.057 91.4C298.057 92.4133 298.003 93.24 297.897 93.88C297.79 94.52 297.683 95.2933 297.577 96.2H297.657C298.937 93 300.323 90.52 301.817 88.76C303.363 87 304.937 85.8 306.537 85.16C308.19 84.4667 309.79 84.12 311.337 84.12C313.63 84.12 315.47 84.6267 316.857 85.64C318.243 86.6533 319.257 88.0933 319.897 89.96C320.59 91.7733 320.937 93.9333 320.937 96.44C320.937 98.36 320.777 100.493 320.457 102.84C320.137 105.187 319.79 107.533 319.417 109.88C319.097 112.227 318.937 114.387 318.937 116.36C318.937 117.213 319.07 117.773 319.337 118.04C319.603 118.307 319.87 118.44 320.137 118.44C320.723 118.44 321.337 117.987 321.977 117.08C322.617 116.173 323.283 114.52 323.977 112.12L328.297 113.4C328.083 114.52 327.657 115.8 327.017 117.24C326.43 118.68 325.63 120.067 324.617 121.4C323.603 122.68 322.403 123.747 321.017 124.6C319.63 125.453 318.03 125.88 316.217 125.88ZM345.685 125.88C343.445 125.88 341.605 125.373 340.165 124.36C338.778 123.347 337.738 121.933 337.045 120.12C336.405 118.253 336.085 116.067 336.085 113.56C336.085 111.587 336.245 109.427 336.565 107.08C336.938 104.733 337.285 102.387 337.605 100.04C337.978 97.6933 338.165 95.56 338.165 93.64C338.165 92.7333 338.005 92.1733 337.685 91.96C337.418 91.6933 337.151 91.56 336.885 91.56C336.298 91.56 335.685 92.0133 335.045 92.92C334.405 93.8267 333.738 95.48 333.045 97.88L328.725 96.6C328.938 95.48 329.338 94.2 329.925 92.76C330.565 91.32 331.391 89.96 332.405 88.68C333.418 87.3467 334.618 86.2533 336.005 85.4C337.391 84.5467 338.991 84.12 340.805 84.12C343.791 84.12 345.791 84.92 346.805 86.52C347.871 88.12 348.405 90.3333 348.405 93.16C348.405 94.76 348.298 96.5733 348.085 98.6C347.871 100.573 347.631 102.6 347.365 104.68C347.098 106.76 346.858 108.733 346.645 110.6C346.431 112.413 346.325 113.933 346.325 115.16C346.325 115.96 346.405 116.627 346.565 117.16C346.725 117.64 346.965 117.987 347.285 118.2C347.605 118.413 348.031 118.52 348.565 118.52C349.471 118.52 350.405 117.933 351.365 116.76C352.378 115.587 353.338 114.013 354.245 112.04C355.151 110.013 355.978 107.8 356.725 105.4C357.471 102.947 358.058 100.467 358.485 97.96C358.965 95.4 359.205 93 359.205 90.76C359.205 90.0133 359.178 89.0267 359.125 87.8C359.125 86.5733 359.071 85.64 358.965 85H369.285C369.391 86.12 369.445 86.92 369.445 87.4C369.498 87.8267 369.525 88.3067 369.525 88.84C369.525 89.96 369.445 91.32 369.285 92.92C369.178 94.4667 369.018 96.1467 368.805 97.96C368.591 99.7733 368.351 101.587 368.085 103.4C367.925 104.84 367.738 106.227 367.525 107.56C367.365 108.893 367.205 110.147 367.045 111.32C366.885 112.44 366.751 113.453 366.645 114.36C366.591 115.213 366.565 115.88 366.565 116.36C366.565 117.213 366.671 117.773 366.885 118.04C367.151 118.307 367.418 118.44 367.685 118.44C368.271 118.44 368.885 117.987 369.525 117.08C370.165 116.173 370.831 114.52 371.525 112.12L375.845 113.4C375.631 114.52 375.285 115.8 374.805 117.24C374.325 118.68 373.658 120.067 372.805 121.4C371.951 122.68 370.911 123.747 369.685 124.6C368.458 125.453 366.965 125.88 365.205 125.88C363.498 125.88 361.951 125.373 360.565 124.36C359.178 123.347 358.485 121.427 358.485 118.6C358.485 117.533 358.538 116.627 358.645 115.88C358.751 115.133 358.831 114.307 358.885 113.4H358.805C357.578 116.6 356.245 119.107 354.805 120.92C353.365 122.733 351.871 124.013 350.325 124.76C348.778 125.507 347.231 125.88 345.685 125.88Z" fill="#001542"/>
<path d="M166.383 135H376.645V139H166.383V135Z" fill="#001542"/>
</svg>
