<svg width="115" height="130" viewBox="0 0 115 130" fill="none" xmlns="http://www.w3.org/2000/svg">
<path d="M67.0999 120.278H47.3999C21.9999 120.278 1.3999 99.6777 1.3999 74.2777V61.4777H113.2V74.2777C113.2 99.6777 92.5999 120.278 67.0999 120.278Z" fill="#ABC3E5"/>
<path d="M105.7 61.4777V71.2777C105.7 96.6777 85.1 117.278 59.7 117.278H40C35.4 117.278 30.9 116.578 26.7 115.278C32.9 118.478 40 120.178 47.5 120.178H67.2C92.6 120.178 113.2 99.5777 113.2 74.1777V61.3777H105.7V61.4777Z" fill="#88A7CA"/>
<path d="M75.2 119.578C72.6 120.078 69.9 120.278 67.1 120.278H47.4C44.6 120.278 41.9 120.078 39.3 119.578L38 128.078H76.5L75.2 119.578Z" fill="#ABC3E5"/>
<path d="M113.2 59.9777H1.39996C0.599963 59.9777 0 60.5777 0 61.3777V74.1777C0 96.9777 16.2 116.178 37.7 120.678L36.6 127.778C36.5 128.178 36.7 128.578 36.9 128.978C37.2 129.278 37.6 129.478 38 129.478H76.5C76.9 129.478 77.3 129.278 77.6 128.978C77.9 128.678 78 128.278 77.9 127.778L76.7999 120.678C98.2999 116.178 114.5 97.0777 114.5 74.1777V61.3777C114.6 60.6777 114 59.9777 113.2 59.9777ZM74 121.178L74.7999 126.578H39.6L40.4 121.178C41 121.278 41.7 121.378 42.3 121.378C42.5 121.378 42.6 121.378 42.8 121.378C43.4 121.478 43.9 121.478 44.5 121.478C44.7 121.478 44.9 121.478 45.1 121.478C45.8 121.478 46.5 121.578 47.3 121.578H67C67.7 121.578 68.4 121.578 69.2 121.478C69.4 121.478 69.5999 121.478 69.7999 121.478C70.3999 121.478 70.9 121.378 71.5 121.378C71.7 121.378 71.8 121.378 72 121.378C72.8 121.378 73.4 121.278 74 121.178ZM111.7 74.1777C111.7 96.3777 95.4999 114.778 74.2999 118.178C74.0999 118.178 73.8 118.278 73.6 118.278C73.1 118.378 72.7 118.378 72.2 118.478C71.9 118.478 71.7 118.578 71.4 118.578C70.9 118.578 70.5 118.678 70 118.678C69.8 118.678 69.4999 118.678 69.2999 118.678C68.5999 118.678 67.9 118.778 67.2 118.778H47.5C46.8 118.778 46.1 118.778 45.4 118.678C45.2 118.678 44.9 118.678 44.7 118.678C44.2 118.678 43.8 118.578 43.3 118.578C43 118.578 42.8 118.478 42.5 118.478C42 118.378 41.6 118.378 41.1 118.278C40.9 118.278 40.6 118.178 40.4 118.178C19.2 114.778 3 96.2777 3 74.1777V62.8777H111.9V74.1777H111.7Z" fill="#001542"/>
<path d="M108.8 61.4777C107.3 12.6777 32 34.2777 32 61.4777H108.8Z" fill="#FFD77B"/>
<path d="M110 62.2778C110.1 62.0778 110.2 61.8777 110.2 61.6777C110.2 61.5777 110.2 61.4777 110.2 61.3777C109.9 50.8777 106.3 42.8777 99.6001 37.5777C93.8001 33.0777 85.9001 30.7777 76.7001 30.8777C66.2001 31.0777 54.7001 34.4777 45.7001 40.0777C36.1001 46.0777 30.6001 53.8777 30.6001 61.3777C30.6001 62.1777 31.2001 62.7778 32.0001 62.7778H45.7001H63.2001H81.0001H108.9H109H109.1C109.2 62.7778 109.2 62.7778 109.3 62.7778H109.4C109.5 62.7778 109.5 62.6777 109.5 62.6777C109.5 62.6777 109.6 62.6777 109.6 62.5777L109.7 62.4777C109.7 62.4777 109.7 62.4777 109.8 62.3777C109.9 62.3777 110 62.3778 110 62.2778ZM100.9 45.0777C97.8001 43.4777 94.1001 42.6778 89.7001 42.7778C83.4001 42.8778 76.4001 44.9778 71.0001 48.2778C65.7001 51.5778 62.5001 55.7777 61.8001 59.9777H47.2001C47.9001 55.0777 51.8001 50.1777 58.3001 46.0777C65.3001 41.7777 74.3001 39.0777 82.4001 38.9777C87.0001 38.9777 95.2001 39.6777 100.9 45.0777ZM89.8 45.6777C93.2 45.6777 99.4001 46.1777 103.5 50.6777C101.8 49.9777 99.8001 49.5777 97.5001 49.5777C97.4001 49.5777 97.3001 49.5777 97.2001 49.5777C89.6001 49.6777 81.0001 54.1777 79.7001 60.0777H64.8C66.2 52.8777 78.1 45.7777 89.8 45.6777ZM97.2001 52.3777C100.7 52.2777 106.3 53.2777 107.3 60.0777H82.7001C84.0001 56.0777 90.7001 52.4777 97.2001 52.3777ZM47.2001 42.5777C55.7001 37.2777 66.8001 33.9777 76.7001 33.8777C81.3001 33.7777 89.0001 34.3777 95.5001 38.3777C91.7001 36.8777 87.3001 36.0777 82.4001 36.1777C73.8001 36.2777 64.2001 39.1778 56.8001 43.7778C49.4001 48.3778 45.0001 54.2777 44.3001 60.0777H33.5001C34.2001 53.8777 39.1001 47.5777 47.2001 42.5777Z" fill="#001542"/>
<path d="M42.9 41.9777C29 28.0777 1.39998 38.7777 3.69998 61.4777H32C32 54.6777 36.7 48.2777 43.7 43.1777C43.9 43.0777 42.9 41.9777 42.9 41.9777Z" fill="#FCBA7A"/>
<path d="M44.0001 41.0777C43.9001 40.9777 43.9001 40.9777 44.0001 41.0777C37.0001 34.0777 25.8 32.3777 16.2 36.9777C6.50004 41.5777 1.20008 50.9777 2.30008 61.6777C2.40008 62.3777 3.00004 62.9777 3.70004 62.9777H32.0001C32.4001 62.9777 32.7001 62.7777 33.0001 62.5777C33.3001 62.2777 33.4001 61.9777 33.4001 61.5777C33.4001 55.6777 37.3001 49.6777 44.5001 44.4777C44.8001 44.2777 45.1001 43.8777 45.1001 43.3777C45.2001 42.7777 45.0001 42.1777 44.0001 41.0777ZM35.1001 49.3777C22.0001 47.1777 16.7001 56.7777 15.3001 60.0777H10.1001C11.5001 51.6777 16.2001 47.8777 20.0001 46.0777C25.4001 43.4777 32.3001 43.7777 37.5001 46.6777C36.7001 47.4777 35.9001 48.3777 35.1001 49.3777ZM30.6001 59.9777H18.5001C20.1001 56.8777 24.3001 51.0777 33.3001 51.9777C31.8001 54.5777 30.9001 57.2777 30.6001 59.9777ZM39.7 44.5777C33.7 40.8777 25.3001 40.3777 18.8001 43.4777C12.5001 46.4777 8.50004 52.2777 7.20004 60.0777H5.00009C4.60009 51.0777 9.10005 43.4777 17.4001 39.5777C25.8001 35.5777 35.6 36.9777 41.7 42.9777C41 43.3777 40.4 43.9777 39.7 44.5777Z" fill="#001542"/>
<path d="M68.9001 33.0777C43.7001 16.8777 27.8 35.7777 27.8 35.7777C27.8 35.7777 36.8 35.6777 43.6 43.1777C54.3 35.2777 66.0001 33.5777 68.9001 33.0777Z" fill="#FFF9B8"/>
<path d="M69.7 31.8777C56.2 23.1777 45.2 24.4777 38.4 26.9777C31 29.7777 26.9 34.5777 26.7 34.7777C26.3 35.1777 26.3 35.7777 26.5 36.2777C26.7 36.7777 27.2 37.0777 27.8 37.0777C27.9 37.0777 36.3 37.0777 42.6 43.9777C42.9 44.2777 43.3 44.4777 43.7 44.4777C44 44.4777 44.3 44.3777 44.6 44.1777C54.2 36.9777 65 35.0777 68.6 34.4777C68.8 34.4777 69.1 34.3777 69.2 34.3777C69.8 34.2777 70.2001 33.7777 70.4001 33.2777C70.4001 32.7777 70.2 32.1777 69.7 31.8777ZM43.9 41.2777C42.5 39.8777 41 38.7777 39.5 37.8777C41.5 36.3777 46.1 33.9777 53.5 35.9777C50.4 37.2777 47.1 38.9777 43.9 41.2777ZM57.6 34.3777C45.6 29.4777 38.7 34.5777 36.7 36.4777C34.6 35.5777 32.6 34.9777 31 34.7777C32.8 33.2777 35.7 31.1777 39.5 29.7777C47.5 26.7777 56 27.6777 64.8 32.4777C62.9 32.7777 60.4 33.3777 57.6 34.3777Z" fill="#001542"/>
<path d="M113.2 71.2777H55.1C54.3 71.2777 53.7 70.6777 53.7 69.8777C53.7 69.0777 54.3 68.4777 55.1 68.4777H113.2C114 68.4777 114.6 69.0777 114.6 69.8777C114.6 70.5777 114 71.2777 113.2 71.2777Z" fill="#001542"/>
<path d="M47.1 71.2777H1.39996C0.599963 71.2777 0 70.6777 0 69.8777C0 69.0777 0.599963 68.4777 1.39996 68.4777H47.1C47.9 68.4777 48.5 69.0777 48.5 69.8777C48.5 70.5777 47.9 71.2777 47.1 71.2777Z" fill="#001542"/>
<path d="M33.4 19.0777C33 19.0777 32.6 18.8777 32.3 18.5777C31.8 17.9777 31.9 17.0777 32.5 16.5777C33 16.1777 34.4 14.6777 34.3 13.2777C34.3 12.3777 33.7 11.5777 32.6 10.6777C31 9.47774 30.7 8.07774 30.7 7.07774C30.8 3.67774 35 0.577748 35.5 0.277748C36.2 -0.222252 37 -0.022258 37.5 0.677742C38 1.37774 37.8 2.17774 37.2 2.67774C36 3.47774 33.7 5.67774 33.6 7.17774C33.6 7.47774 33.7 7.87773 34.4 8.47773C36.2 9.87773 37.2 11.4777 37.2 13.2777C37.3 16.3777 34.6 18.5777 34.3 18.8777C34.1 18.9777 33.7 19.0777 33.4 19.0777Z" fill="#001542"/>
<path d="M56.5001 19.0777C56.1001 19.0777 55.7 18.8777 55.4 18.5777C54.9 17.9777 55 17.0777 55.6 16.5777C56.1 16.1777 57.5 14.6777 57.4 13.2777C57.4 12.3777 56.8 11.5777 55.7 10.6777C54.1 9.47774 53.8 8.07774 53.8 7.07774C53.9 3.67774 58.1 0.577748 58.6 0.277748C59.3 -0.222252 60.1 -0.022258 60.6 0.677742C61.1 1.37774 60.9 2.17774 60.3 2.67774C59.1 3.47774 56.8 5.67774 56.7 7.17774C56.7 7.47774 56.8001 7.87773 57.5001 8.47773C59.3001 9.87773 60.3 11.4777 60.3 13.2777C60.4 16.3777 57.7 18.5777 57.4 18.8777C57.1 18.9777 56.8001 19.0777 56.5001 19.0777Z" fill="#001542"/>
<path d="M79.4999 19.0777C79.0999 19.0777 78.6999 18.8777 78.3999 18.5777C77.8999 17.9777 77.9999 17.0777 78.5999 16.5777C79.0999 16.1777 80.4999 14.6777 80.3999 13.2777C80.3999 12.3777 79.7998 11.5777 78.6998 10.6777C77.0998 9.47774 76.7998 8.07774 76.7998 7.07774C76.8998 3.67774 81.0999 0.577748 81.5999 0.277748C82.2999 -0.222252 83.0999 -0.022258 83.5999 0.677742C84.0999 1.37774 83.8998 2.17774 83.2998 2.67774C82.0998 3.47774 79.7998 5.67774 79.6998 7.17774C79.6998 7.47774 79.7999 7.87773 80.4999 8.47773C82.2999 9.87773 83.2998 11.4777 83.2998 13.2777C83.3998 16.3777 80.6999 18.5777 80.3999 18.8777C80.0999 18.9777 79.7999 19.0777 79.4999 19.0777Z" fill="#001542"/>
</svg>
