<svg width="176" height="165" viewBox="0 0 176 165" fill="none" xmlns="http://www.w3.org/2000/svg">
<path d="M69.5 165C107.884 165 139 133.884 139 95.5C139 57.1162 107.884 26 69.5 26C31.1162 26 0 57.1162 0 95.5C0 133.884 31.1162 165 69.5 165Z" fill="#A5D9C7"/>
<path d="M101.3 57.8L148.8 1.40002L154 5.80002L104.8 60.8L101.3 57.8Z" fill="#FFDF7F"/>
<path d="M104.8 62.3C104.5 62.3 104.1 62.2 103.9 61.9L100.4 58.9C99.8 58.4 99.7 57.5 100.2 56.9L147.7 0.5C147.9 0.2 148.3 0 148.7 0C149.1 0 149.5 0.100018 149.8 0.300018L154.9 4.80002C155.2 5.10002 155.4 5.40002 155.4 5.80002C155.4 6.20002 155.3 6.60002 155 6.90002L105.8 61.9C105.6 62.1 105.2 62.3 104.8 62.3ZM103.3 57.6L104.7 58.8L152 6L149.1 3.40002L103.3 57.6Z" fill="#001542"/>
<path d="M115 58.5C114.1 53.7 109.9 50 104.8 50C100 50 95.9001 53.3 94.8001 57.8C93.6001 57.5 92.3001 57.3 90.9001 57.3C88.9001 57.3 87.0001 57.7 85.2001 58.3C83.4001 55.8 80.5001 54.2 77.1001 54.2C74.3001 54.2 71.7001 55.4 69.9001 57.3C67.5001 55.3 64.4001 54.2 61.1001 54.2C54.1001 54.2 48.2001 59.4 47.2001 66.2C45.9001 65.8 44.5001 65.6 43.1001 65.6C35.3001 65.6 29.1001 71.9 29.1001 79.6C29.1001 87.3 35.4001 93.6 43.1001 93.6C45.5001 93.6 74.1001 92.7 83.8001 93.8C102.5 95.9 107.1 100.8 112.2 100.8C124 100.8 133.5 91.3 133.5 79.5C133.5 68.7 125.4 59.8 115 58.5Z" fill="#E4EDF1"/>
<path d="M112.2 102.3C110 102.3 108 101.5 105.2 100.5C101.1 98.9 95 96.6 83.7 95.3C75.7 94.4 54.3999 94.9 46.3999 95C44.6999 95 43.6 95.1 43.2 95.1C34.7 95.1 27.7 88.2 27.7 79.6C27.7 71 34.6 64.1 43.2 64.1C44.2 64.1 45.2 64.2 46.2 64.4C47.9 57.7 54.1 52.8 61.2 52.8C64.3 52.8 67.3999 53.7 69.8999 55.5C71.8999 53.8 74.5 52.8 77.2 52.8C80.5 52.8 83.5999 54.2 85.7999 56.7C88.3999 55.9 91.1999 55.7 93.8999 56.2C95.5999 51.7 99.9999 48.7 104.9 48.7C110.2 48.7 114.9 52.3 116.3 57.3C127 59.2 135 68.6 135 79.7C134.9 92.1 124.7 102.3 112.2 102.3ZM66.7999 91.8C73.5999 91.8 80.1999 91.9 83.8999 92.4C95.5999 93.7 101.9 96.2 106.1 97.8C108.7 98.8 110.4 99.4 112.1 99.4C123 99.4 131.9 90.5 131.9 79.6C131.9 69.7 124.5 61.2 114.7 59.9C114.1 59.8 113.6 59.3 113.5 58.7C112.7 54.5 109 51.4 104.7 51.4C100.6 51.4 97.0999 54.1 96.0999 58.1C95.8999 58.9 95.0999 59.3 94.3999 59.1C91.4999 58.4 88.4 58.6 85.7 59.6C85.1 59.8 84.3999 59.6 83.9999 59.1C82.3999 56.9 79.7999 55.6 77.0999 55.6C74.6999 55.6 72.4999 56.5 70.8999 58.3C70.3999 58.8 69.4999 58.9 68.8999 58.4C66.5999 56.6 63.8999 55.6 60.9999 55.6C54.7999 55.6 49.3999 60.2 48.4999 66.3C48.3999 66.7 48.1999 67.1 47.7999 67.3C47.3999 67.5 46.9999 67.6 46.5999 67.5C45.3999 67.1 44.1999 66.9 42.8999 66.9C35.9999 66.9 30.2999 72.5 30.2999 79.5C30.2999 86.4 35.8999 92.1 42.8999 92.1C43.2999 92.1 44.3999 92.1 45.9999 92C50.5999 92 58.8999 91.8 66.7999 91.8Z" fill="#001542"/>
<path d="M111.7 74.3L109.1 70.5L170.2 29.1L174 34.8L111.7 74.3Z" fill="#FFDF7F"/>
<path d="M111.7 75.8C111.2 75.8 110.8 75.6 110.5 75.1L108 71.2C107.6 70.5 107.7 69.7 108.4 69.2L169.5 27.8C169.8 27.6 170.2 27.5 170.6 27.6C171 27.7 171.3 27.9 171.5 28.2L175.2 33.9C175.4 34.2 175.5 34.6 175.4 35C175.3 35.4 175.1 35.7 174.8 35.9L112.5 75.5C112.2 75.7 111.9 75.8 111.7 75.8ZM111.1 70.9L112.1 72.4L171.9 34.4L169.8 31.1L111.1 70.9Z" fill="#001542"/>
<path d="M38 78.3C37.6 78.3 37.3 78.2 37 77.9C36.4 77.3 36.4 76.4 37 75.9L40.6001 72.2C41.2001 71.6 42.1001 71.6 42.6001 72.2C43.2001 72.8 43.2001 73.7 42.6001 74.2L39 77.9C38.8 78.2 38.4 78.3 38 78.3Z" fill="#001542"/>
<path d="M59.4 82C59 82 58.7 81.9 58.4 81.6C57.8 81 57.8 80.1 58.4 79.6L62 75.9C62.6 75.3 63.5 75.3 64 75.9C64.6 76.5 64.6 77.4 64 77.9L60.4 81.6C60.1 81.9 59.7 82 59.4 82Z" fill="#001542"/>
<path d="M58.4 68.7C58 68.7 57.7 68.6 57.4 68.3C56.8 67.7 56.8 66.8 57.4 66.3L61 62.6C61.6 62 62.5 62 63 62.6C63.6 63.2 63.6 64.1 63 64.6L59.4 68.3C59.2 68.5 58.8 68.7 58.4 68.7Z" fill="#001542"/>
<path d="M79.5 72.4C79.1 72.4 78.8 72.3 78.5 72C77.9 71.4 77.9 70.5 78.5 70L82.1001 66.3C82.7001 65.7 83.6001 65.7 84.1001 66.3C84.7001 66.9 84.7001 67.8 84.1001 68.3L80.5 72C80.2 72.2 79.8 72.4 79.5 72.4Z" fill="#001542"/>
<path d="M96.3001 82C95.9001 82 95.6001 81.9 95.3001 81.6C94.7001 81 94.7001 80.1 95.3001 79.6L98.9001 75.9C99.5001 75.3 100.4 75.3 100.9 75.9C101.5 76.5 101.5 77.4 100.9 77.9L97.3001 81.6C97.0001 81.9 96.7001 82 96.3001 82Z" fill="#001542"/>
<path d="M102.9 66C102.5 66 102.2 65.9 101.9 65.6C101.3 65 101.3 64.1 101.9 63.6L105.5 59.9C106.1 59.3 107 59.3 107.5 59.9C108.1 60.5 108.1 61.4 107.5 61.9L103.9 65.6C103.7 65.8 103.3 66 102.9 66Z" fill="#001542"/>
<path d="M120.4 80.2C120 80.2 119.7 80.1 119.4 79.8C118.8 79.2 118.8 78.3 119.4 77.8L123 74.1C123.6 73.5 124.5 73.5 125 74.1C125.6 74.7 125.6 75.6 125 76.1L121.4 79.8C121.2 80 120.8 80.2 120.4 80.2Z" fill="#001542"/>
<path d="M91.0999 144.4H71.3999C45.9999 144.4 25.3999 123.8 25.3999 98.4V85.6H137.2V98.4C137.1 123.8 116.5 144.4 91.0999 144.4Z" fill="#F16279"/>
<path d="M132.4 85.6V90.7C132.4 116.1 111.8 136.7 86.4001 136.7H66.7001C51.8001 136.7 38.5001 129.6 30.1001 118.6C37.6001 133.9 53.3001 144.4 71.5001 144.4H91.2001C116.6 144.4 137.2 123.8 137.2 98.4V85.6H132.4V85.6Z" fill="#CB5973"/>
<path d="M99.2 143.7C96.6 144.2 93.9 144.4 91.1 144.4H71.4C68.6 144.4 65.9 144.2 63.3 143.7L62 152.2H100.5L99.2 143.7Z" fill="#B14659"/>
<path d="M137.1 84.2H25.4C24.6 84.2 24 84.8 24 85.6V98.4C24 121.2 40.2 140.4 61.7 144.9L60.6 152C60.5 152.4 60.7 152.8 60.9 153.2C61.2 153.5 61.6 153.7 62 153.7H100.5C100.9 153.7 101.3 153.5 101.6 153.2C101.9 152.9 102 152.5 101.9 152L100.8 144.9C122.3 140.4 138.5 121.3 138.5 98.4V85.6C138.6 84.8 137.9 84.2 137.1 84.2ZM63.7 150.8L64.5 145.4C65.1 145.5 65.8 145.6 66.4 145.6C66.6 145.6 66.7 145.6 66.9 145.6C67.5 145.7 68 145.7 68.6 145.7C68.8 145.7 69 145.7 69.2 145.7C69.9 145.7 70.6 145.8 71.4 145.8H91.1C91.8 145.8 92.5 145.8 93.3 145.7C93.5 145.7 93.7 145.7 93.9 145.7C94.5 145.7 95 145.6 95.6 145.6C95.8 145.6 95.9 145.6 96.1 145.6C96.7 145.5 97.4 145.5 98 145.4L98.8 150.8H63.7ZM135.7 98.4C135.7 120.6 119.5 139 98.3 142.4C98.1 142.4 97.8 142.5 97.6 142.5C97.1 142.6 96.7 142.6 96.2 142.7C95.9 142.7 95.7 142.8 95.4 142.8C94.9 142.8 94.5 142.9 94 142.9C93.8 142.9 93.5 142.9 93.3 142.9C92.6 142.9 91.9 143 91.2 143H71.5C70.8 143 70.1 143 69.4 142.9C69.2 142.9 68.9 142.9 68.7 142.9C68.2 142.9 67.8 142.8 67.3 142.8C67 142.8 66.8 142.7 66.5 142.7C66 142.6 65.6 142.6 65.1 142.5C64.9 142.5 64.6 142.4 64.4 142.4C43.2 139 27 120.5 27 98.4V94.8H127.8C128.6 94.8 129.2 94.2 129.2 93.4C129.2 92.6 128.6 92 127.8 92H26.8V87.2H135.7V98.4V98.4Z" fill="#001542"/>
</svg>
